<svg xmlns="http://www.w3.org/2000/svg" xmlns:xlink="http://www.w3.org/1999/xlink" width="500" zoomAndPan="magnify" viewBox="0 0 375 374.999991" height="500" preserveAspectRatio="xMidYMid meet" version="1.0"><rect x="-37.5" width="450" fill="#ffffff" y="-37.499999" height="449.999989" fill-opacity="1"/><rect x="-37.5" width="450" fill="#ffffff" y="-37.499999" height="449.999989" fill-opacity="1"/><path fill="#000000" d="M 48.628906 115.476562 C 45.03125 111.945312 40.328125 109.941406 35.347656 109.941406 C 24.972656 109.941406 16.535156 118.449219 16.535156 128.757812 L 16.535156 217.527344 C 16.535156 225.554688 19.164062 233.511719 24.074219 239.804688 L 87.089844 322 L 87.089844 336.324219 L 82.246094 336.324219 C 75.605469 336.324219 70.210938 341.71875 70.210938 348.363281 L 70.210938 362.890625 C 70.210938 369.535156 75.605469 374.929688 82.246094 374.929688 L 163.589844 374.929688 C 170.230469 374.929688 175.625 369.535156 175.625 362.890625 L 175.625 348.363281 C 175.625 341.71875 170.230469 336.324219 163.589844 336.324219 L 158.886719 336.324219 L 158.886719 273.015625 C 158.886719 248.316406 141.523438 227.144531 117.453125 222.300781 L 76.988281 184.59375 C 70.695312 178.78125 61.148438 178.230469 54.234375 183.347656 C 54.234375 183.417969 54.164062 183.417969 54.09375 183.488281 L 54.09375 128.757812 C 54.09375 123.777344 52.089844 118.933594 48.628906 115.476562 Z M 155.425781 343.242188 L 163.589844 343.242188 C 166.425781 343.242188 168.707031 345.527344 168.707031 348.363281 L 168.707031 362.890625 C 168.707031 365.730469 166.425781 368.011719 163.589844 368.011719 L 82.246094 368.011719 C 79.410156 368.011719 77.128906 365.730469 77.128906 362.890625 L 77.128906 348.363281 C 77.128906 345.527344 79.410156 343.242188 82.246094 343.242188 Z M 58.382812 188.882812 C 62.601562 185.769531 68.414062 186.117188 72.285156 189.714844 L 113.441406 228.042969 C 113.996094 228.460938 114.546875 228.804688 115.238281 228.945312 C 136.476562 232.75 151.96875 251.292969 151.96875 273.015625 L 151.96875 336.324219 L 94.003906 336.324219 L 94.003906 320.824219 C 94.003906 320.066406 93.726562 319.304688 93.246094 318.679688 L 29.539062 235.65625 C 25.597656 230.464844 23.453125 224.03125 23.453125 217.527344 L 23.453125 128.757812 C 23.453125 122.117188 28.640625 116.859375 35.347656 116.859375 C 38.460938 116.859375 41.4375 118.105469 43.71875 120.386719 C 45.933594 122.53125 47.175781 125.644531 47.175781 128.757812 L 47.175781 195.386719 C 47.109375 196.078125 47.039062 196.839844 47.039062 197.601562 C 47.039062 198.222656 47.109375 198.847656 47.175781 199.675781 L 47.175781 203.273438 C 47.175781 204.726562 48.144531 205.972656 49.527344 206.457031 C 50.429688 208.117188 51.671875 209.640625 53.058594 210.953125 L 98.640625 251.152344 C 100.09375 252.46875 102.304688 252.328125 103.550781 250.875 C 104.796875 249.421875 104.65625 247.277344 103.273438 245.964844 L 57.691406 205.835938 C 55.753906 204.035156 54.507812 201.753906 54.09375 199.054688 L 54.09375 195.941406 C 54.578125 193.105469 56.167969 190.613281 58.382812 188.882812 Z M 58.382812 188.882812 " fill-opacity="1" fill-rule="nonzero"/><path fill="#000000" d="M 351.59375 239.804688 C 356.433594 233.511719 359.0625 225.554688 359.0625 217.527344 L 359.0625 128.757812 C 359.0625 118.449219 350.625 109.941406 340.25 109.941406 C 335.269531 109.941406 330.566406 111.945312 327.039062 115.476562 C 323.507812 118.933594 321.503906 123.777344 321.503906 128.757812 L 321.503906 183.488281 C 321.433594 183.417969 321.367188 183.347656 321.296875 183.347656 C 314.449219 178.230469 304.902344 178.78125 298.609375 184.59375 L 258.144531 222.300781 C 234.074219 227.144531 216.710938 248.316406 216.710938 273.015625 L 216.710938 336.324219 L 212.007812 336.324219 C 205.367188 336.324219 199.972656 341.71875 199.972656 348.363281 L 199.972656 362.890625 C 199.972656 369.535156 205.367188 374.929688 212.007812 374.929688 L 293.351562 374.929688 C 299.992188 374.929688 305.386719 369.535156 305.386719 362.890625 L 305.386719 348.363281 C 305.386719 341.71875 299.992188 336.324219 293.351562 336.324219 L 288.511719 336.324219 L 288.511719 322 Z M 293.351562 343.242188 C 296.1875 343.242188 298.46875 345.527344 298.46875 348.363281 L 298.46875 362.890625 C 298.46875 365.730469 296.1875 368.011719 293.351562 368.011719 L 212.007812 368.011719 C 209.171875 368.011719 206.890625 365.730469 206.890625 362.890625 L 206.890625 348.363281 C 206.890625 345.527344 209.171875 343.242188 212.007812 343.242188 Z M 282.355469 318.679688 C 281.871094 319.304688 281.59375 320.066406 281.59375 320.824219 L 281.59375 336.324219 L 223.628906 336.324219 L 223.628906 273.015625 C 223.628906 251.292969 239.121094 232.75 260.359375 228.945312 C 261.050781 228.804688 261.601562 228.460938 262.15625 228.042969 L 303.3125 189.644531 C 307.1875 186.117188 312.996094 185.769531 317.214844 188.882812 C 319.496094 190.613281 321.019531 193.171875 321.503906 195.941406 L 321.503906 199.191406 C 321.089844 201.753906 319.84375 204.035156 317.90625 205.765625 L 272.324219 245.964844 C 270.941406 247.277344 270.800781 249.421875 272.046875 250.875 C 273.292969 252.328125 275.507812 252.46875 276.957031 251.152344 L 322.542969 210.953125 C 323.925781 209.640625 325.101562 208.1875 326.070312 206.457031 C 327.382812 206.042969 328.421875 204.796875 328.421875 203.273438 L 328.421875 199.609375 C 328.488281 198.917969 328.558594 198.292969 328.558594 197.601562 C 328.558594 196.980469 328.488281 196.285156 328.421875 195.457031 L 328.421875 128.757812 C 328.421875 125.644531 329.664062 122.53125 331.878906 120.386719 C 334.160156 118.105469 337.136719 116.859375 340.25 116.859375 C 346.957031 116.859375 352.144531 122.117188 352.144531 128.757812 L 352.144531 217.527344 C 352.144531 224.03125 350 230.464844 346.058594 235.65625 Z M 282.355469 318.679688 " fill-opacity="1" fill-rule="nonzero"/><path fill="#000000" d="M 95.457031 44.765625 L 95.457031 113.054688 C 95.457031 121.632812 97.324219 129.867188 100.921875 137.617188 C 106.59375 149.515625 114.480469 160.933594 124.371094 171.378906 C 140.488281 188.398438 161.308594 202.722656 186.347656 214 C 186.832031 214.207031 187.316406 214.34375 187.800781 214.34375 C 188.28125 214.34375 188.765625 214.207031 189.25 214 C 214.289062 202.722656 235.109375 188.398438 251.226562 171.378906 C 261.117188 160.933594 269.003906 149.515625 274.675781 137.617188 C 278.273438 129.933594 280.140625 121.632812 280.140625 113.054688 L 280.140625 44.765625 C 280.140625 42.964844 278.757812 41.445312 276.957031 41.304688 C 258.90625 39.714844 241.542969 34.734375 225.425781 26.566406 C 212.492188 19.996094 200.59375 11.417969 190.21875 1.105469 C 189.527344 0.414062 188.628906 0 187.660156 0.0703125 C 186.761719 0.136719 185.863281 0.554688 185.171875 1.246094 C 174.863281 13.007812 162.550781 22.417969 148.578125 29.265625 C 133.222656 36.808594 116 40.960938 98.847656 41.304688 C 96.980469 41.304688 95.457031 42.898438 95.457031 44.765625 Z M 102.375 48.085938 C 119.390625 47.324219 136.335938 42.964844 151.625 35.492188 C 165.320312 28.78125 177.5625 19.71875 187.9375 8.511719 C 198.242188 18.195312 209.792969 26.359375 222.316406 32.726562 C 238.222656 40.890625 255.378906 45.941406 273.222656 47.878906 L 273.222656 113.054688 C 273.222656 120.59375 271.632812 127.859375 268.382812 134.640625 C 263.054688 145.917969 255.585938 156.710938 246.179688 166.675781 C 231.238281 182.449219 211.109375 196.425781 187.800781 207.082031 C 164.488281 196.425781 144.359375 182.449219 129.421875 166.675781 C 120.011719 156.710938 112.542969 145.917969 107.214844 134.640625 C 103.964844 127.859375 102.375 120.59375 102.375 113.054688 Z M 102.375 48.085938 " fill-opacity="1" fill-rule="nonzero"/><path fill="#000000" d="M 142.699219 154.082031 C 153.976562 165.984375 169.054688 176.984375 186.207031 185.910156 C 186.691406 186.183594 187.246094 186.324219 187.800781 186.324219 C 188.351562 186.324219 188.90625 186.183594 189.390625 185.910156 C 206.542969 176.984375 221.621094 165.984375 232.898438 154.082031 C 240.921875 145.503906 247.355469 136.371094 251.851562 126.820312 C 253.925781 122.464844 254.894531 117.964844 254.894531 113.054688 L 254.894531 66.28125 C 254.894531 64.691406 253.785156 63.308594 252.195312 62.960938 C 238.984375 59.917969 226.117188 55.28125 214.015625 49.054688 C 205.921875 44.972656 198.105469 40.128906 190.773438 34.734375 C 189.527344 33.765625 187.800781 33.832031 186.554688 34.800781 C 178.324219 41.511719 169.261719 47.253906 159.648438 51.960938 C 148.304688 57.496094 136.128906 61.578125 123.539062 64 C 121.878906 64.277344 120.703125 65.730469 120.703125 67.390625 L 120.703125 113.054688 C 120.703125 117.964844 121.671875 122.464844 123.746094 126.820312 C 128.242188 136.371094 134.675781 145.503906 142.699219 154.082031 Z M 224.113281 97.484375 L 186.96875 134.640625 C 183.441406 138.238281 177.148438 138.238281 173.550781 134.640625 L 155.011719 116.027344 C 151.277344 112.363281 151.277344 106.34375 155.011719 102.605469 C 156.8125 100.808594 159.164062 99.839844 161.722656 99.839844 C 164.210938 99.839844 166.632812 100.808594 168.429688 102.605469 L 177.839844 112.015625 C 179.222656 113.398438 181.367188 113.398438 182.75 112.015625 L 210.695312 84.0625 C 214.289062 80.464844 220.515625 80.464844 224.113281 84.0625 C 227.847656 87.730469 227.847656 93.75 224.113281 97.484375 Z M 224.113281 97.484375 " fill-opacity="1" fill-rule="nonzero"/><path fill="#000000" d="M 138.488281 308.800781 C 140.398438 308.800781 141.945312 307.25 141.945312 305.339844 L 141.945312 280.792969 C 141.945312 278.882812 140.398438 277.332031 138.488281 277.332031 C 136.578125 277.332031 135.03125 278.882812 135.03125 280.792969 L 135.03125 305.339844 C 135.03125 307.25 136.578125 308.800781 138.488281 308.800781 Z M 138.488281 308.800781 " fill-opacity="1" fill-rule="nonzero"/><path fill="#000000" d="M 136.058594 323.453125 C 136.335938 323.730469 136.757812 324.007812 137.167969 324.148438 C 137.589844 324.355469 138.066406 324.421875 138.480469 324.421875 C 138.957031 324.421875 139.378906 324.355469 139.789062 324.148438 C 140.210938 324.007812 140.617188 323.730469 140.894531 323.453125 C 141.242188 323.109375 141.519531 322.695312 141.65625 322.277344 C 141.855469 321.863281 141.933594 321.449219 141.933594 320.964844 C 141.933594 320.550781 141.855469 320.066406 141.65625 319.648438 C 141.511719 319.234375 141.234375 318.820312 140.894531 318.542969 C 140.617188 318.195312 140.203125 317.917969 139.789062 317.78125 C 138.542969 317.226562 137.027344 317.574219 136.054688 318.542969 C 135.707031 318.820312 135.429688 319.234375 135.300781 319.648438 C 135.089844 320.066406 135.023438 320.550781 135.023438 320.964844 C 135.023438 321.449219 135.089844 321.863281 135.300781 322.277344 C 135.4375 322.695312 135.714844 323.109375 136.054688 323.453125 Z M 136.058594 323.453125 " fill-opacity="1" fill-rule="nonzero"/></svg>