<svg xmlns="http://www.w3.org/2000/svg" xmlns:xlink="http://www.w3.org/1999/xlink" width="500" zoomAndPan="magnify" viewBox="0 0 375 374.999991" height="500" preserveAspectRatio="xMidYMid meet" version="1.0"><rect x="-37.5" width="450" fill="#ffffff" y="-37.499999" height="449.999989" fill-opacity="1"/><rect x="-37.5" width="450" fill="#ffffff" y="-37.499999" height="449.999989" fill-opacity="1"/><path fill="#000000" d="M 290.753906 265.410156 C 290.332031 264.074219 290.304688 262.46875 290.671875 260.589844 C 291.078125 258.597656 291.808594 256.730469 292.855469 254.988281 C 294.535156 252.136719 296.75 250.371094 299.496094 249.691406 C 302.246094 249.011719 305.210938 249.527344 308.394531 251.238281 L 310.289062 252.332031 C 312.433594 253.59375 314.085938 255.074219 315.242188 256.773438 C 316.386719 258.398438 316.980469 260.210938 317.023438 262.199219 C 317.035156 264.238281 316.503906 266.125 315.433594 267.859375 C 313.839844 270.574219 311.980469 272.316406 309.855469 273.085938 C 307.730469 273.855469 305.363281 273.644531 302.75 272.441406 L 305.722656 267.386719 C 307.046875 267.921875 308.144531 268.042969 309.015625 267.75 C 309.886719 267.457031 310.644531 266.761719 311.289062 265.664062 C 311.675781 265.050781 311.878906 264.386719 311.898438 263.660156 C 311.921875 262.9375 311.757812 262.261719 311.40625 261.628906 C 310.710938 260.253906 309.328125 258.949219 307.261719 257.71875 L 305.945312 256.945312 C 303.769531 255.667969 301.917969 255.078125 300.386719 255.179688 C 298.859375 255.28125 297.625 256.128906 296.6875 257.722656 C 295.882812 259.089844 295.585938 260.285156 295.804688 261.3125 L 299.183594 263.300781 L 301.332031 259.652344 L 304.9375 261.769531 L 299.703125 270.671875 Z M 290.753906 265.410156 " fill-opacity="1" fill-rule="nonzero"/><path fill="#000000" d="M 283.773438 305.699219 L 272.171875 293.90625 C 270.859375 292.570312 270.003906 291.132812 269.613281 289.59375 C 269.210938 288.019531 269.296875 286.472656 269.867188 284.953125 C 270.429688 283.394531 271.433594 281.898438 272.886719 280.472656 C 275.082031 278.316406 277.371094 277.183594 279.753906 277.082031 C 282.136719 276.980469 284.3125 277.90625 286.285156 279.863281 L 297.972656 291.742188 L 293.601562 296.039062 L 281.832031 284.070312 C 279.84375 282.148438 277.957031 282.0625 276.175781 283.816406 C 275.273438 284.699219 274.835938 285.617188 274.863281 286.566406 C 274.886719 287.515625 275.445312 288.546875 276.542969 289.660156 L 288.117188 301.429688 Z M 283.773438 305.699219 " fill-opacity="1" fill-rule="nonzero"/><path fill="#000000" d="M 245.890625 306.507812 L 253.148438 302.378906 L 252.078125 297.554688 L 257.734375 294.335938 L 262.183594 320.882812 L 257.207031 323.714844 L 236.585938 306.375 L 242.273438 303.136719 Z M 254.207031 307.1875 L 249.484375 309.875 L 256.191406 316.144531 Z M 254.207031 307.1875 " fill-opacity="1" fill-rule="nonzero"/><path fill="#000000" d="M 219.429688 321.234375 L 222.621094 320.40625 L 220.371094 311.753906 L 226.265625 310.222656 L 232.632812 334.675781 L 223.003906 337.179688 C 220.105469 337.933594 217.667969 337.882812 215.699219 337.019531 C 213.730469 336.160156 212.4375 334.554688 211.828125 332.207031 C 211.382812 330.503906 211.363281 329.007812 211.757812 327.707031 C 212.15625 326.410156 213 325.226562 214.285156 324.148438 L 206.609375 315.601562 L 206.542969 315.351562 L 212.859375 313.707031 Z M 223.800781 324.9375 L 220.070312 325.910156 C 218.953125 326.199219 218.1875 326.714844 217.773438 327.449219 C 217.359375 328.1875 217.292969 329.082031 217.566406 330.136719 C 217.839844 331.195312 218.34375 331.945312 219.070312 332.398438 C 219.796875 332.851562 220.714844 332.933594 221.824219 332.644531 L 225.554688 331.675781 Z M 223.800781 324.9375 " fill-opacity="1" fill-rule="nonzero"/><path fill="#000000" d="M 180.226562 321.339844 L 188.578125 321.472656 L 190.109375 316.777344 L 196.621094 316.882812 L 186.941406 342 L 181.210938 341.90625 L 172.285156 316.488281 L 178.828125 316.59375 Z M 187.042969 326.152344 L 181.609375 326.066406 L 184.191406 334.875 Z M 187.042969 326.152344 " fill-opacity="1" fill-rule="nonzero"/><path fill="#000000" d="M 141.09375 309.175781 L 146.925781 310.8125 L 151.296875 328.375 L 155.550781 313.238281 L 161.417969 314.886719 L 154.578125 339.214844 L 148.710938 337.566406 L 144.359375 320.007812 L 140.105469 335.144531 L 134.253906 333.5 Z M 141.09375 309.175781 " fill-opacity="1" fill-rule="nonzero"/><path fill="#000000" d="M 102.101562 311.746094 L 108.636719 315.597656 L 119.089844 297.882812 L 124.335938 300.976562 L 113.886719 318.695312 L 120.300781 322.476562 L 117.910156 326.527344 L 99.710938 315.796875 Z M 102.101562 311.746094 " fill-opacity="1" fill-rule="nonzero"/><path fill="#000000" d="M 84.636719 283.308594 L 91.488281 290.003906 L 95.710938 285.6875 L 87.617188 277.773438 L 90.894531 274.425781 L 103.347656 286.59375 L 85.675781 304.664062 L 73.199219 292.46875 L 76.488281 289.105469 L 84.605469 297.042969 L 88.332031 293.230469 L 81.480469 286.535156 Z M 84.636719 283.308594 " fill-opacity="1" fill-rule="nonzero"/><path fill="#000000" d="M 66.132812 257.671875 L 71.265625 265.765625 L 76.367188 262.53125 L 70.304688 252.972656 L 74.261719 250.464844 L 83.585938 265.167969 L 62.242188 278.699219 L 52.898438 263.96875 L 56.871094 261.449219 L 62.949219 271.035156 L 67.453125 268.183594 L 62.320312 260.089844 Z M 66.132812 257.671875 " fill-opacity="1" fill-rule="nonzero"/><path fill="#000000" d="M 185.234375 369.1875 C 181.609375 369.179688 177.992188 369.066406 174.375 368.839844 C 170.761719 368.613281 167.15625 368.277344 163.558594 367.828125 C 159.964844 367.382812 156.386719 366.824219 152.824219 366.15625 C 149.265625 365.492188 145.726562 364.714844 142.214844 363.832031 C 138.699219 362.949219 135.214844 361.960938 131.761719 360.863281 C 128.3125 359.765625 124.894531 358.5625 121.515625 357.257812 C 118.136719 355.953125 114.800781 354.542969 111.507812 353.03125 C 108.214844 351.523438 104.972656 349.914062 101.777344 348.203125 C 98.582031 346.492188 95.445312 344.6875 92.359375 342.785156 C 89.277344 340.886719 86.253906 338.890625 83.292969 336.804688 C 80.332031 334.71875 77.4375 332.542969 74.609375 330.277344 C 71.78125 328.011719 69.027344 325.664062 66.34375 323.230469 C 63.660156 320.796875 61.050781 318.285156 58.523438 315.691406 C 55.992188 313.097656 53.542969 310.433594 51.179688 307.6875 C 48.8125 304.945312 46.53125 302.132812 44.339844 299.25 C 42.144531 296.367188 40.042969 293.421875 38.027344 290.410156 C 36.015625 287.398438 34.097656 284.328125 32.269531 281.199219 C 30.445312 278.070312 28.71875 274.886719 27.089844 271.652344 C 25.460938 268.417969 23.929688 265.136719 22.5 261.808594 C 21.074219 258.480469 19.746094 255.109375 18.523438 251.699219 C 17.304688 248.289062 16.1875 244.847656 15.175781 241.367188 C 14.164062 237.890625 13.261719 234.382812 12.464844 230.851562 C 11.667969 227.316406 10.980469 223.761719 10.402344 220.1875 C 9.824219 216.609375 9.359375 213.019531 9 209.414062 C 8.640625 205.8125 8.394531 202.199219 8.257812 198.578125 C 8.121094 194.960938 8.097656 191.339844 8.179688 187.71875 C 8.265625 184.097656 8.464844 180.480469 8.769531 176.871094 C 9.078125 173.265625 9.496094 169.667969 10.023438 166.085938 C 10.550781 162.5 11.1875 158.9375 11.933594 155.390625 C 12.679688 151.847656 13.53125 148.328125 14.492188 144.835938 C 15.453125 141.34375 16.523438 137.886719 17.695312 134.457031 C 18.871094 131.03125 20.148438 127.644531 21.527344 124.296875 C 22.910156 120.945312 24.394531 117.644531 25.976562 114.386719 C 27.5625 111.128906 29.242188 107.921875 31.023438 104.769531 C 32.804688 101.613281 34.679688 98.515625 36.648438 95.476562 C 38.621094 92.4375 40.683594 89.460938 42.835938 86.546875 C 44.988281 83.632812 47.226562 80.789062 49.554688 78.011719 C 51.882812 75.238281 54.292969 72.535156 56.785156 69.90625 C 59.277344 67.277344 61.847656 64.730469 64.496094 62.257812 C 67.148438 59.789062 69.871094 57.398438 72.664062 55.097656 C 75.460938 52.792969 78.324219 50.574219 81.253906 48.445312 C 84.1875 46.320312 87.179688 44.28125 90.238281 42.335938 C 93.292969 40.390625 96.40625 38.542969 99.574219 36.789062 C 102.746094 35.035156 105.964844 33.378906 109.238281 31.820312 C 112.507812 30.265625 115.824219 28.808594 119.183594 27.453125 C 122.542969 26.101562 125.941406 24.851562 129.378906 23.707031 C 132.816406 22.558594 136.285156 21.519531 139.785156 20.589844 C 143.285156 19.65625 146.8125 18.832031 150.363281 18.113281 C 153.914062 17.398438 157.484375 16.789062 161.074219 16.292969 C 164.664062 15.792969 168.261719 15.40625 171.875 15.128906 C 175.488281 14.851562 179.105469 14.683594 182.726562 14.628906 C 186.351562 14.570312 189.96875 14.628906 193.589844 14.792969 C 197.207031 14.960938 200.820312 15.234375 204.421875 15.625 C 208.023438 16.011719 211.609375 16.507812 215.183594 17.113281 C 218.753906 17.722656 222.304688 18.4375 225.832031 19.261719 C 229.359375 20.085938 232.859375 21.019531 236.328125 22.058594 C 239.800781 23.097656 243.234375 24.242188 246.636719 25.492188 C 250.035156 26.742188 253.394531 28.09375 256.710938 29.546875 C 260.03125 31.003906 263.300781 32.558594 266.523438 34.214844 C 269.746094 35.871094 272.914062 37.625 276.027344 39.472656 C 279.144531 41.324219 282.199219 43.265625 285.195312 45.304688 C 288.1875 47.339844 291.121094 49.46875 293.984375 51.683594 C 296.851562 53.902344 299.644531 56.203125 302.367188 58.59375 C 305.09375 60.980469 307.742188 63.449219 310.3125 66 C 312.886719 68.550781 315.378906 71.175781 317.789062 73.878906 C 320.203125 76.582031 322.527344 79.355469 324.769531 82.203125 C 327.011719 85.046875 329.164062 87.960938 331.226562 90.9375 C 333.289062 93.914062 335.261719 96.953125 337.136719 100.050781 C 339.015625 103.148438 340.792969 106.300781 342.476562 109.507812 C 344.160156 112.714844 345.746094 115.972656 347.230469 119.277344 C 348.714844 122.582031 350.09375 125.925781 351.375 129.316406 C 352.652344 132.707031 353.824219 136.128906 354.894531 139.589844 C 355.964844 143.050781 356.925781 146.542969 357.78125 150.0625 C 358.636719 153.582031 359.382812 157.125 360.019531 160.691406 C 360.65625 164.257812 361.183594 167.839844 361.601562 171.4375 C 362.019531 175.035156 362.328125 178.640625 362.527344 182.257812 C 362.722656 185.875 362.808594 189.496094 362.785156 193.117188 C 362.757812 196.738281 362.621094 200.355469 362.375 203.96875 C 362.128906 207.582031 361.773438 211.1875 361.304688 214.777344 C 360.835938 218.371094 360.261719 221.945312 359.574219 225.5 C 358.886719 229.058594 358.089844 232.589844 357.1875 236.097656 C 356.285156 239.605469 355.273438 243.082031 354.160156 246.527344 C 353.042969 249.972656 351.820312 253.382812 350.496094 256.753906 C 349.171875 260.125 347.742188 263.453125 346.214844 266.734375 C 344.683594 270.019531 343.054688 273.253906 341.328125 276.4375 C 339.601562 279.621094 337.777344 282.746094 335.859375 285.820312 C 333.9375 288.890625 331.925781 291.902344 329.824219 294.851562 C 327.71875 297.800781 325.527344 300.683594 323.246094 303.496094 C 320.964844 306.3125 318.601562 309.054688 316.152344 311.722656 C 313.703125 314.390625 311.175781 316.984375 308.570312 319.5 C 305.960938 322.011719 303.28125 324.445312 300.523438 326.796875 C 297.765625 329.144531 294.941406 331.410156 292.042969 333.585938 C 289.148438 335.765625 286.191406 337.851562 283.167969 339.847656 C 280.144531 341.84375 277.0625 343.742188 273.921875 345.550781 C 270.78125 347.359375 267.589844 349.066406 264.34375 350.679688 C 261.101562 352.289062 257.808594 353.800781 254.472656 355.210938 C 243.519531 359.84375 232.214844 363.335938 220.558594 365.691406 C 208.902344 368.042969 197.125 369.210938 185.234375 369.1875 Z M 185.234375 20.625 C 181.757812 20.628906 178.28125 20.738281 174.8125 20.957031 C 171.339844 21.175781 167.878906 21.5 164.429688 21.929688 C 160.976562 22.359375 157.542969 22.894531 154.125 23.53125 C 150.707031 24.171875 147.3125 24.917969 143.9375 25.765625 C 140.566406 26.613281 137.222656 27.5625 133.910156 28.617188 C 130.59375 29.667969 127.316406 30.824219 124.070312 32.078125 C 120.828125 33.332031 117.625 34.683594 114.464844 36.132812 C 111.304688 37.582031 108.191406 39.128906 105.125 40.769531 C 102.058594 42.410156 99.046875 44.144531 96.085938 45.96875 C 93.128906 47.796875 90.226562 49.710938 87.382812 51.710938 C 84.542969 53.714844 81.761719 55.804688 79.050781 57.976562 C 76.335938 60.152344 73.691406 62.40625 71.113281 64.742188 C 68.539062 67.078125 66.035156 69.488281 63.605469 71.980469 C 61.179688 74.46875 58.828125 77.027344 56.558594 79.660156 C 54.285156 82.292969 52.097656 84.996094 49.992188 87.761719 C 47.886719 90.527344 45.867188 93.359375 43.9375 96.25 C 42.003906 99.140625 40.160156 102.085938 38.410156 105.089844 C 36.660156 108.09375 35 111.148438 33.4375 114.253906 C 31.871094 117.359375 30.40625 120.507812 29.035156 123.703125 C 27.660156 126.898438 26.390625 130.132812 25.21875 133.40625 C 24.042969 136.679688 22.972656 139.984375 22.003906 143.324219 C 21.03125 146.664062 20.164062 150.027344 19.402344 153.421875 C 18.636719 156.8125 17.976562 160.226562 17.421875 163.65625 C 16.867188 167.089844 16.417969 170.535156 16.074219 173.996094 C 15.730469 177.457031 15.496094 180.921875 15.363281 184.398438 C 15.234375 187.871094 15.207031 191.347656 15.289062 194.824219 C 15.371094 198.296875 15.5625 201.769531 15.855469 205.234375 C 16.152344 208.695312 16.550781 212.148438 17.058594 215.589844 C 17.566406 219.027344 18.175781 222.449219 18.890625 225.851562 C 19.609375 229.253906 20.429688 232.632812 21.351562 235.984375 C 22.273438 239.335938 23.300781 242.65625 24.425781 245.945312 C 25.554688 249.234375 26.78125 252.488281 28.105469 255.699219 C 29.433594 258.914062 30.855469 262.085938 32.375 265.210938 C 33.894531 268.339844 35.511719 271.417969 37.21875 274.445312 C 38.929688 277.472656 40.730469 280.445312 42.621094 283.363281 C 44.511719 286.28125 46.492188 289.136719 48.558594 291.933594 C 50.625 294.730469 52.773438 297.460938 55.007812 300.125 C 57.242188 302.789062 59.554688 305.382812 61.949219 307.90625 C 64.34375 310.429688 66.808594 312.875 69.351562 315.25 C 71.898438 317.621094 74.507812 319.910156 77.191406 322.125 C 79.875 324.335938 82.625 326.460938 85.4375 328.503906 C 88.253906 330.546875 91.128906 332.503906 94.0625 334.371094 C 96.996094 336.238281 99.984375 338.011719 103.023438 339.695312 C 106.066406 341.378906 109.160156 342.96875 112.300781 344.464844 C 115.4375 345.957031 118.621094 347.355469 121.847656 348.652344 C 125.074219 349.953125 128.335938 351.152344 131.632812 352.253906 C 134.933594 353.351562 138.261719 354.347656 141.625 355.246094 C 144.984375 356.140625 148.367188 356.929688 151.777344 357.621094 C 155.1875 358.308594 158.613281 358.890625 162.058594 359.367188 C 165.503906 359.847656 168.957031 360.21875 172.425781 360.484375 C 175.894531 360.75 179.367188 360.910156 182.84375 360.964844 C 186.320312 361.019531 189.796875 360.964844 193.269531 360.804688 C 196.742188 360.644531 200.210938 360.378906 203.667969 360.007812 C 207.125 359.636719 210.566406 359.160156 213.996094 358.574219 C 217.425781 357.992188 220.832031 357.304688 224.21875 356.515625 C 227.605469 355.722656 230.964844 354.828125 234.292969 353.832031 C 237.625 352.832031 240.921875 351.734375 244.1875 350.535156 C 247.453125 349.335938 250.675781 348.035156 253.859375 346.640625 C 257.046875 345.242188 260.183594 343.75 263.277344 342.160156 C 266.371094 340.570312 269.410156 338.886719 272.402344 337.113281 C 275.390625 335.335938 278.324219 333.46875 281.199219 331.515625 C 284.074219 329.558594 286.886719 327.515625 289.636719 325.390625 C 292.386719 323.261719 295.070312 321.050781 297.683594 318.757812 C 300.300781 316.46875 302.839844 314.097656 305.3125 311.648438 C 307.78125 309.199219 310.171875 306.679688 312.488281 304.085938 C 314.800781 301.488281 317.035156 298.828125 319.1875 296.09375 C 321.339844 293.363281 323.402344 290.570312 325.382812 287.710938 C 327.363281 284.851562 329.253906 281.9375 331.058594 278.960938 C 332.859375 275.988281 334.566406 272.960938 336.183594 269.882812 C 337.800781 266.804688 339.320312 263.679688 340.742188 260.507812 C 342.167969 257.335938 343.496094 254.125 344.722656 250.871094 C 345.949219 247.617188 347.074219 244.328125 348.101562 241.007812 C 349.128906 237.683594 350.050781 234.335938 350.871094 230.957031 C 351.691406 227.578125 352.40625 224.175781 353.019531 220.753906 C 353.632812 217.332031 354.140625 213.894531 354.539062 210.441406 C 354.941406 206.988281 355.238281 203.523438 355.425781 200.050781 C 355.613281 196.582031 355.695312 193.105469 355.671875 189.628906 C 355.648438 186.152344 355.519531 182.679688 355.28125 179.210938 C 355.042969 175.742188 354.703125 172.285156 354.253906 168.835938 C 353.804688 165.386719 353.25 161.957031 352.589844 158.542969 C 351.929688 155.128906 351.167969 151.738281 350.300781 148.371094 C 349.433594 145.003906 348.464844 141.667969 347.394531 138.359375 C 346.320312 135.050781 345.148438 131.78125 343.875 128.546875 C 342.605469 125.308594 341.234375 122.117188 339.765625 118.964844 C 338.296875 115.8125 336.734375 112.707031 335.078125 109.652344 C 333.417969 106.59375 331.667969 103.59375 329.824219 100.644531 C 327.984375 97.695312 326.050781 94.804688 324.03125 91.976562 C 322.011719 89.144531 319.910156 86.378906 317.71875 83.675781 C 315.53125 80.976562 313.261719 78.34375 310.910156 75.78125 C 308.558594 73.21875 306.132812 70.730469 303.628906 68.316406 C 301.125 65.902344 298.550781 63.566406 295.90625 61.3125 C 293.261719 59.054688 290.546875 56.882812 287.769531 54.792969 C 284.988281 52.703125 282.148438 50.703125 279.246094 48.785156 C 276.34375 46.871094 273.386719 45.042969 270.371094 43.308594 C 267.355469 41.574219 264.292969 39.9375 261.179688 38.390625 C 258.0625 36.84375 254.90625 35.390625 251.703125 34.039062 C 241.1875 29.589844 230.335938 26.238281 219.144531 23.980469 C 207.953125 21.71875 196.648438 20.601562 185.234375 20.625 Z M 185.234375 20.625 " fill-opacity="1" fill-rule="nonzero"/><path fill="#000000" d="M 185.234375 298.46875 C 183.050781 298.464844 180.871094 298.394531 178.691406 298.257812 C 176.515625 298.121094 174.34375 297.917969 172.179688 297.648438 C 170.011719 297.378906 167.855469 297.042969 165.710938 296.644531 C 163.566406 296.242188 161.4375 295.773438 159.320312 295.242188 C 157.203125 294.710938 155.105469 294.113281 153.023438 293.453125 C 150.945312 292.792969 148.886719 292.070312 146.851562 291.28125 C 144.816406 290.496094 142.808594 289.648438 140.824219 288.738281 C 138.839844 287.828125 136.886719 286.859375 134.960938 285.828125 C 133.039062 284.800781 131.148438 283.710938 129.289062 282.566406 C 127.433594 281.421875 125.613281 280.21875 123.828125 278.960938 C 122.046875 277.707031 120.300781 276.394531 118.597656 275.03125 C 116.894531 273.667969 115.234375 272.253906 113.617188 270.785156 C 112 269.320312 110.429688 267.808594 108.90625 266.246094 C 107.382812 264.683594 105.910156 263.078125 104.484375 261.425781 C 103.058594 259.773438 101.683594 258.078125 100.363281 256.34375 C 99.042969 254.605469 97.773438 252.832031 96.5625 251.015625 C 95.347656 249.203125 94.195312 247.351562 93.09375 245.46875 C 91.996094 243.582031 90.953125 241.667969 89.972656 239.71875 C 88.992188 237.769531 88.070312 235.792969 87.210938 233.789062 C 86.347656 231.78125 85.550781 229.753906 84.8125 227.699219 C 84.078125 225.644531 83.40625 223.570312 82.796875 221.476562 C 82.1875 219.378906 81.644531 217.269531 81.164062 215.140625 C 80.683594 213.011719 80.269531 210.871094 79.921875 208.71875 C 79.574219 206.5625 79.292969 204.402344 79.074219 202.230469 C 78.859375 200.058594 78.710938 197.882812 78.628906 195.703125 C 78.546875 193.523438 78.53125 191.339844 78.582031 189.160156 C 78.632812 186.980469 78.753906 184.800781 78.9375 182.628906 C 79.121094 180.453125 79.375 178.285156 79.691406 176.128906 C 80.007812 173.96875 80.390625 171.824219 80.839844 169.6875 C 81.289062 167.550781 81.804688 165.433594 82.382812 163.328125 C 82.964844 161.226562 83.605469 159.140625 84.3125 157.078125 C 85.019531 155.015625 85.789062 152.972656 86.621094 150.957031 C 87.453125 148.9375 88.347656 146.949219 89.300781 144.988281 C 90.253906 143.023438 91.269531 141.09375 92.339844 139.195312 C 93.414062 137.292969 94.542969 135.429688 95.730469 133.597656 C 96.917969 131.765625 98.160156 129.972656 99.457031 128.21875 C 100.753906 126.464844 102.101562 124.75 103.503906 123.078125 C 104.90625 121.40625 106.355469 119.777344 107.859375 118.195312 C 109.359375 116.609375 110.910156 115.074219 112.503906 113.585938 C 114.101562 112.097656 115.738281 110.660156 117.425781 109.273438 C 119.109375 107.886719 120.832031 106.550781 122.597656 105.269531 C 124.363281 103.984375 126.167969 102.757812 128.007812 101.585938 C 129.847656 100.414062 131.722656 99.300781 133.632812 98.246094 C 135.542969 97.1875 137.484375 96.191406 139.453125 95.253906 C 141.421875 94.316406 143.421875 93.4375 145.445312 92.621094 C 147.46875 91.808594 149.515625 91.054688 151.585938 90.363281 C 153.65625 89.675781 155.746094 89.046875 157.855469 88.484375 C 159.964844 87.925781 162.085938 87.425781 164.226562 86.996094 C 166.367188 86.5625 168.515625 86.199219 170.679688 85.898438 C 172.839844 85.597656 175.007812 85.363281 177.183594 85.195312 C 179.359375 85.03125 181.539062 84.929688 183.722656 84.894531 C 185.902344 84.863281 188.082031 84.894531 190.265625 84.996094 C 192.445312 85.09375 194.617188 85.261719 196.789062 85.496094 C 198.957031 85.726562 201.117188 86.027344 203.269531 86.394531 C 205.421875 86.757812 207.558594 87.191406 209.683594 87.6875 C 211.808594 88.183594 213.917969 88.746094 216.007812 89.371094 C 218.097656 89.996094 220.167969 90.6875 222.21875 91.4375 C 224.265625 92.191406 226.289062 93.007812 228.285156 93.882812 C 230.285156 94.757812 232.253906 95.695312 234.195312 96.695312 C 236.136719 97.691406 238.046875 98.746094 239.921875 99.863281 C 241.796875 100.976562 243.636719 102.144531 245.441406 103.375 C 247.246094 104.601562 249.011719 105.882812 250.738281 107.21875 C 252.464844 108.550781 254.148438 109.9375 255.789062 111.378906 C 257.429688 112.816406 259.023438 114.304688 260.574219 115.839844 C 262.125 117.375 263.625 118.957031 265.078125 120.585938 C 266.53125 122.214844 267.933594 123.886719 269.28125 125.597656 C 270.632812 127.3125 271.929688 129.066406 273.171875 130.859375 C 274.414062 132.652344 275.601562 134.484375 276.730469 136.351562 C 277.863281 138.214844 278.933594 140.117188 279.949219 142.046875 C 280.964844 143.980469 281.917969 145.941406 282.8125 147.929688 C 283.703125 149.921875 284.535156 151.9375 285.308594 153.980469 C 286.078125 156.019531 286.785156 158.082031 287.429688 160.167969 C 288.074219 162.253906 288.652344 164.355469 289.167969 166.476562 C 289.683594 168.59375 290.132812 170.730469 290.515625 172.878906 C 290.898438 175.023438 291.21875 177.183594 291.46875 179.351562 C 291.722656 181.515625 291.90625 183.691406 292.023438 185.867188 C 292.144531 188.046875 292.195312 190.226562 292.179688 192.410156 C 292.164062 194.589844 292.082031 196.769531 291.933594 198.945312 C 291.785156 201.125 291.570312 203.292969 291.289062 205.457031 C 291.007812 207.621094 290.660156 209.773438 290.246094 211.917969 C 289.832031 214.058594 289.355469 216.1875 288.808594 218.300781 C 288.265625 220.410156 287.660156 222.507812 286.984375 224.582031 C 286.3125 226.65625 285.578125 228.710938 284.78125 230.742188 C 283.980469 232.773438 283.121094 234.777344 282.199219 236.753906 C 281.277344 238.730469 280.296875 240.679688 279.257812 242.597656 C 278.21875 244.515625 277.117188 246.398438 275.960938 248.25 C 274.804688 250.101562 273.59375 251.914062 272.328125 253.691406 C 271.058594 255.464844 269.738281 257.203125 268.367188 258.898438 C 266.992188 260.59375 265.566406 262.246094 264.09375 263.851562 C 262.617188 265.460938 261.09375 267.023438 259.523438 268.535156 C 257.953125 270.050781 256.339844 271.515625 254.675781 272.933594 C 253.015625 274.347656 251.316406 275.710938 249.570312 277.023438 C 247.828125 278.335938 246.042969 279.589844 244.222656 280.792969 C 242.402344 281.996094 240.546875 283.140625 238.652344 284.230469 C 236.761719 285.316406 234.839844 286.347656 232.886719 287.320312 C 230.929688 288.289062 228.949219 289.199219 226.9375 290.046875 C 220.339844 292.839844 213.53125 294.945312 206.511719 296.363281 C 199.488281 297.777344 192.398438 298.480469 185.234375 298.46875 Z M 185.234375 91.34375 C 183.195312 91.347656 181.160156 91.410156 179.128906 91.539062 C 177.097656 91.667969 175.070312 91.855469 173.046875 92.109375 C 171.027344 92.359375 169.015625 92.671875 167.011719 93.046875 C 165.007812 93.421875 163.019531 93.859375 161.046875 94.355469 C 159.070312 94.851562 157.113281 95.410156 155.171875 96.027344 C 153.230469 96.644531 151.308594 97.320312 149.410156 98.054688 C 147.507812 98.789062 145.632812 99.578125 143.78125 100.429688 C 141.929688 101.277344 140.105469 102.183594 138.3125 103.144531 C 136.515625 104.105469 134.75 105.121094 133.015625 106.191406 C 131.28125 107.261719 129.582031 108.382812 127.917969 109.554688 C 126.253906 110.726562 124.625 111.953125 123.035156 113.226562 C 121.445312 114.5 119.898438 115.820312 118.386719 117.1875 C 116.878906 118.554688 115.414062 119.96875 113.992188 121.425781 C 112.570312 122.882812 111.191406 124.382812 109.863281 125.925781 C 108.53125 127.46875 107.25 129.050781 106.015625 130.671875 C 104.785156 132.292969 103.601562 133.949219 102.46875 135.640625 C 101.335938 137.335938 100.257812 139.0625 99.234375 140.820312 C 98.207031 142.582031 97.234375 144.371094 96.320312 146.1875 C 95.402344 148.007812 94.542969 149.851562 93.742188 151.726562 C 92.9375 153.597656 92.191406 155.492188 91.503906 157.40625 C 90.816406 159.324219 90.191406 161.261719 89.621094 163.21875 C 89.054688 165.171875 88.546875 167.144531 88.097656 169.132812 C 87.652344 171.117188 87.265625 173.117188 86.941406 175.128906 C 86.617188 177.136719 86.351562 179.15625 86.152344 181.183594 C 85.949219 183.210938 85.8125 185.242188 85.734375 187.277344 C 85.65625 189.3125 85.644531 191.347656 85.691406 193.382812 C 85.738281 195.417969 85.851562 197.449219 86.023438 199.480469 C 86.195312 201.507812 86.429688 203.53125 86.726562 205.546875 C 87.023438 207.5625 87.382812 209.566406 87.800781 211.558594 C 88.222656 213.550781 88.699219 215.527344 89.242188 217.492188 C 89.78125 219.457031 90.382812 221.402344 91.042969 223.328125 C 91.703125 225.253906 92.421875 227.160156 93.199219 229.042969 C 93.976562 230.925781 94.808594 232.78125 95.699219 234.613281 C 96.589844 236.445312 97.535156 238.246094 98.539062 240.019531 C 99.539062 241.792969 100.59375 243.535156 101.703125 245.246094 C 102.808594 246.953125 103.96875 248.628906 105.179688 250.265625 C 106.390625 251.902344 107.648438 253.503906 108.957031 255.0625 C 110.265625 256.625 111.621094 258.144531 113.023438 259.621094 C 114.425781 261.097656 115.871094 262.53125 117.359375 263.921875 C 118.847656 265.308594 120.378906 266.652344 121.953125 267.949219 C 123.523438 269.242188 125.132812 270.488281 126.78125 271.6875 C 128.429688 272.882812 130.113281 274.027344 131.832031 275.121094 C 133.550781 276.214844 135.300781 277.253906 137.082031 278.242188 C 138.867188 279.226562 140.675781 280.160156 142.515625 281.035156 C 144.355469 281.910156 146.21875 282.726562 148.109375 283.488281 C 149.996094 284.25 151.910156 284.953125 153.839844 285.59375 C 155.773438 286.238281 157.722656 286.824219 159.691406 287.347656 C 161.660156 287.871094 163.644531 288.335938 165.640625 288.738281 C 167.636719 289.140625 169.644531 289.484375 171.660156 289.765625 C 173.679688 290.042969 175.703125 290.261719 177.734375 290.417969 C 179.765625 290.574219 181.800781 290.667969 183.835938 290.699219 C 185.875 290.730469 187.910156 290.699219 189.945312 290.605469 C 191.980469 290.511719 194.007812 290.355469 196.035156 290.136719 C 198.058594 289.921875 200.078125 289.640625 202.085938 289.300781 C 204.09375 288.957031 206.089844 288.554688 208.070312 288.089844 C 210.054688 287.628906 212.023438 287.105469 213.972656 286.519531 C 215.925781 285.933594 217.855469 285.292969 219.769531 284.589844 C 221.679688 283.886719 223.570312 283.125 225.433594 282.308594 C 227.300781 281.488281 229.140625 280.613281 230.949219 279.683594 C 232.761719 278.753906 234.542969 277.765625 236.296875 276.726562 C 238.046875 275.6875 239.765625 274.59375 241.449219 273.449219 C 243.132812 272.300781 244.78125 271.105469 246.390625 269.859375 C 248 268.613281 249.574219 267.320312 251.105469 265.976562 C 252.636719 264.632812 254.125 263.246094 255.570312 261.8125 C 257.019531 260.375 258.417969 258.898438 259.773438 257.378906 C 261.132812 255.859375 262.4375 254.300781 263.699219 252.699219 C 264.960938 251.101562 266.171875 249.464844 267.328125 247.789062 C 268.488281 246.113281 269.597656 244.40625 270.652344 242.664062 C 271.707031 240.921875 272.707031 239.148438 273.65625 237.347656 C 274.601562 235.542969 275.492188 233.710938 276.328125 231.855469 C 277.160156 229.996094 277.9375 228.117188 278.65625 226.210938 C 279.375 224.304688 280.035156 222.378906 280.636719 220.433594 C 281.238281 218.488281 281.777344 216.523438 282.257812 214.546875 C 282.738281 212.566406 283.160156 210.574219 283.515625 208.570312 C 283.875 206.5625 284.171875 204.550781 284.40625 202.527344 C 284.640625 200.503906 284.816406 198.476562 284.925781 196.441406 C 285.035156 194.410156 285.085938 192.375 285.070312 190.335938 C 285.054688 188.300781 284.980469 186.265625 284.839844 184.234375 C 284.703125 182.203125 284.5 180.175781 284.238281 178.15625 C 283.976562 176.136719 283.652344 174.128906 283.265625 172.128906 C 282.878906 170.128906 282.433594 168.144531 281.921875 166.171875 C 281.414062 164.199219 280.847656 162.246094 280.21875 160.308594 C 279.59375 158.371094 278.90625 156.453125 278.160156 154.558594 C 277.414062 152.664062 276.613281 150.792969 275.753906 148.945312 C 274.894531 147.097656 273.976562 145.28125 273.007812 143.492188 C 272.035156 141.699219 271.007812 139.941406 269.929688 138.214844 C 268.851562 136.488281 267.71875 134.796875 266.535156 133.136719 C 265.355469 131.480469 264.121094 129.859375 262.839844 128.277344 C 261.558594 126.695312 260.226562 125.152344 258.851562 123.652344 C 257.472656 122.152344 256.050781 120.691406 254.585938 119.277344 C 253.121094 117.867188 251.613281 116.496094 250.0625 115.175781 C 248.511719 113.855469 246.921875 112.582031 245.292969 111.359375 C 243.667969 110.132812 242.003906 108.960938 240.300781 107.839844 C 238.601562 106.714844 236.871094 105.648438 235.105469 104.632812 C 233.339844 103.617188 231.542969 102.65625 229.71875 101.75 C 227.894531 100.84375 226.046875 99.992188 224.167969 99.203125 C 218.011719 96.597656 211.652344 94.632812 205.097656 93.308594 C 198.542969 91.984375 191.921875 91.332031 185.234375 91.34375 Z M 185.234375 91.34375 " fill-opacity="1" fill-rule="nonzero"/><path fill="#000000" d="M 79.710938 117.289062 C 80.136719 118.625 80.164062 120.234375 79.796875 122.113281 C 79.390625 124.105469 78.660156 125.96875 77.609375 127.710938 C 75.933594 130.566406 73.71875 132.332031 70.96875 133.011719 C 68.222656 133.6875 65.253906 133.171875 62.070312 131.464844 L 60.175781 130.371094 C 58.03125 129.109375 56.382812 127.628906 55.226562 125.929688 C 54.082031 124.300781 53.488281 122.492188 53.445312 120.503906 C 53.433594 118.464844 53.964844 116.578125 55.03125 114.839844 C 56.628906 112.128906 58.488281 110.386719 60.613281 109.617188 C 62.738281 108.84375 65.105469 109.058594 67.71875 110.257812 L 64.742188 115.316406 C 63.421875 114.78125 62.324219 114.660156 61.453125 114.953125 C 60.582031 115.246094 59.824219 115.941406 59.179688 117.039062 C 58.792969 117.648438 58.589844 118.316406 58.570312 119.039062 C 58.546875 119.761719 58.710938 120.441406 59.0625 121.074219 C 59.753906 122.449219 61.136719 123.75 63.207031 124.980469 L 64.523438 125.757812 C 66.699219 127.035156 68.550781 127.625 70.082031 127.523438 C 71.609375 127.421875 72.84375 126.574219 73.78125 124.976562 C 74.585938 123.613281 74.878906 122.414062 74.664062 121.390625 L 71.28125 119.402344 L 69.136719 123.050781 L 65.527344 120.929688 L 70.761719 112.027344 Z M 79.710938 117.289062 " fill-opacity="1" fill-rule="nonzero"/><path fill="#000000" d="M 86.695312 77 L 98.292969 88.796875 C 99.609375 90.132812 100.460938 91.570312 100.855469 93.105469 C 101.257812 94.679688 101.171875 96.230469 100.601562 97.75 C 100.039062 99.308594 99.03125 100.800781 97.578125 102.230469 C 95.382812 104.386719 93.097656 105.515625 90.714844 105.621094 C 88.332031 105.722656 86.152344 104.796875 84.183594 102.839844 L 72.496094 90.960938 L 76.867188 86.664062 L 88.636719 98.628906 C 90.625 100.554688 92.511719 100.640625 94.292969 98.886719 C 95.191406 98.003906 95.628906 97.085938 95.605469 96.136719 C 95.582031 95.1875 95.019531 94.15625 93.925781 93.042969 L 82.351562 81.273438 Z M 86.695312 77 " fill-opacity="1" fill-rule="nonzero"/><path fill="#000000" d="M 124.578125 76.191406 L 117.320312 80.324219 L 118.390625 85.148438 L 112.730469 88.367188 L 108.28125 61.820312 L 113.261719 58.988281 L 133.882812 76.328125 L 128.191406 79.566406 Z M 116.261719 75.515625 L 120.980469 72.828125 L 114.277344 66.558594 Z M 116.261719 75.515625 " fill-opacity="1" fill-rule="nonzero"/><path fill="#000000" d="M 151.039062 61.46875 L 147.847656 62.296875 L 150.097656 70.945312 L 144.199219 72.480469 L 137.835938 48.023438 L 147.460938 45.519531 C 150.363281 44.765625 152.796875 44.820312 154.769531 45.679688 C 156.738281 46.542969 158.03125 48.148438 158.640625 50.496094 C 159.082031 52.195312 159.105469 53.695312 158.707031 54.992188 C 158.308594 56.292969 157.46875 57.476562 156.179688 58.554688 L 163.859375 67.097656 L 163.921875 67.351562 L 157.605469 68.996094 Z M 146.664062 57.761719 L 150.394531 56.792969 C 151.515625 56.5 152.28125 55.988281 152.695312 55.25 C 153.105469 54.515625 153.175781 53.617188 152.902344 52.5625 C 152.625 51.507812 152.125 50.753906 151.398438 50.300781 C 150.671875 49.851562 149.75 49.769531 148.644531 50.058594 L 144.914062 51.027344 Z M 146.664062 57.761719 " fill-opacity="1" fill-rule="nonzero"/><path fill="#000000" d="M 190.242188 61.363281 L 181.890625 61.226562 L 180.355469 65.925781 L 173.847656 65.820312 L 183.527344 40.699219 L 189.253906 40.792969 L 198.183594 66.210938 L 191.640625 66.105469 Z M 183.425781 56.546875 L 188.859375 56.636719 L 186.273438 47.828125 Z M 183.425781 56.546875 " fill-opacity="1" fill-rule="nonzero"/><path fill="#000000" d="M 229.371094 73.527344 L 223.539062 71.886719 L 219.171875 54.324219 L 214.917969 69.464844 L 209.050781 67.816406 L 215.890625 43.488281 L 221.753906 45.136719 L 226.105469 62.691406 L 230.363281 47.554688 L 236.210938 49.199219 Z M 229.371094 73.527344 " fill-opacity="1" fill-rule="nonzero"/><path fill="#000000" d="M 268.367188 70.957031 L 261.832031 67.101562 L 251.378906 84.820312 L 246.132812 81.722656 L 256.582031 64.007812 L 250.167969 60.226562 L 252.558594 56.171875 L 270.753906 66.902344 Z M 268.367188 70.957031 " fill-opacity="1" fill-rule="nonzero"/><path fill="#000000" d="M 285.832031 99.394531 L 278.980469 92.695312 L 274.753906 97.015625 L 282.847656 104.925781 L 279.570312 108.277344 L 267.121094 96.105469 L 284.792969 78.039062 L 297.265625 90.230469 L 293.980469 93.59375 L 285.859375 85.660156 L 282.132812 89.46875 L 288.988281 96.167969 Z M 285.832031 99.394531 " fill-opacity="1" fill-rule="nonzero"/><path fill="#000000" d="M 304.335938 125.027344 L 299.203125 116.9375 L 294.101562 120.171875 L 300.164062 129.726562 L 296.207031 132.238281 L 286.878906 117.535156 L 308.226562 104.003906 L 317.570312 118.734375 L 313.597656 121.253906 L 307.515625 111.667969 L 303.015625 114.519531 L 308.148438 122.609375 Z M 304.335938 125.027344 " fill-opacity="1" fill-rule="nonzero"/><path fill="#000000" d="M 48.953125 171 L 52.0625 180.5625 C 52.191406 180.953125 52.421875 181.269531 52.753906 181.511719 C 53.085938 181.753906 53.457031 181.875 53.871094 181.875 L 63.929688 181.875 C 64.339844 181.875 64.710938 181.996094 65.046875 182.238281 C 65.378906 182.480469 65.609375 182.796875 65.734375 183.1875 C 65.863281 183.578125 65.863281 183.96875 65.734375 184.359375 C 65.609375 184.75 65.378906 185.066406 65.046875 185.308594 L 56.90625 191.21875 C 56.574219 191.460938 56.34375 191.777344 56.214844 192.167969 C 56.089844 192.5625 56.089844 192.953125 56.214844 193.34375 L 59.324219 202.90625 C 59.453125 203.300781 59.453125 203.691406 59.324219 204.082031 C 59.199219 204.472656 58.96875 204.789062 58.636719 205.03125 C 58.304688 205.273438 57.929688 205.394531 57.519531 205.394531 C 57.109375 205.394531 56.738281 205.273438 56.402344 205.03125 L 48.265625 199.117188 C 47.933594 198.875 47.5625 198.757812 47.148438 198.757812 C 46.738281 198.757812 46.367188 198.875 46.035156 199.117188 L 37.894531 205.03125 C 37.5625 205.273438 37.191406 205.394531 36.777344 205.394531 C 36.367188 205.394531 35.996094 205.273438 35.664062 205.03125 C 35.332031 204.789062 35.101562 204.472656 34.972656 204.082031 C 34.847656 203.691406 34.847656 203.300781 34.972656 202.90625 L 38.082031 193.34375 C 38.207031 192.953125 38.207031 192.5625 38.082031 192.167969 C 37.953125 191.777344 37.726562 191.460938 37.390625 191.21875 L 29.253906 185.308594 C 28.921875 185.066406 28.691406 184.75 28.5625 184.359375 C 28.4375 183.96875 28.4375 183.578125 28.5625 183.1875 C 28.691406 182.792969 28.921875 182.476562 29.253906 182.238281 C 29.585938 181.996094 29.957031 181.875 30.371094 181.875 L 40.429688 181.875 C 40.839844 181.875 41.210938 181.753906 41.546875 181.511719 C 41.878906 181.269531 42.109375 180.953125 42.234375 180.5625 L 45.34375 171 C 45.46875 170.605469 45.699219 170.289062 46.03125 170.046875 C 46.363281 169.804688 46.738281 169.683594 47.148438 169.683594 C 47.558594 169.683594 47.933594 169.804688 48.265625 170.046875 C 48.597656 170.289062 48.828125 170.605469 48.953125 171 Z M 48.953125 171 " fill-opacity="1" fill-rule="nonzero"/><path fill="#000000" d="M 326.558594 171 L 329.667969 180.5625 C 329.796875 180.953125 330.023438 181.269531 330.359375 181.511719 C 330.691406 181.753906 331.0625 181.875 331.472656 181.875 L 341.535156 181.875 C 341.945312 181.875 342.316406 181.996094 342.648438 182.238281 C 342.980469 182.480469 343.210938 182.796875 343.339844 183.1875 C 343.464844 183.578125 343.464844 183.96875 343.339844 184.359375 C 343.210938 184.75 342.980469 185.066406 342.648438 185.308594 L 334.511719 191.21875 C 334.179688 191.460938 333.949219 191.777344 333.820312 192.167969 C 333.695312 192.5625 333.695312 192.953125 333.820312 193.34375 L 336.929688 202.90625 C 337.054688 203.300781 337.054688 203.691406 336.929688 204.082031 C 336.800781 204.472656 336.570312 204.789062 336.238281 205.03125 C 335.90625 205.273438 335.535156 205.394531 335.125 205.394531 C 334.710938 205.394531 334.339844 205.273438 334.007812 205.03125 L 325.867188 199.117188 C 325.535156 198.875 325.164062 198.757812 324.753906 198.757812 C 324.339844 198.757812 323.96875 198.875 323.636719 199.117188 L 315.5 205.03125 C 315.164062 205.273438 314.792969 205.394531 314.382812 205.394531 C 313.972656 205.394531 313.597656 205.273438 313.265625 205.03125 C 312.933594 204.789062 312.703125 204.472656 312.578125 204.082031 C 312.449219 203.691406 312.449219 203.300781 312.578125 202.90625 L 315.683594 193.34375 C 315.8125 192.953125 315.8125 192.5625 315.683594 192.167969 C 315.558594 191.777344 315.328125 191.460938 314.996094 191.21875 L 306.859375 185.308594 C 306.527344 185.066406 306.296875 184.75 306.167969 184.359375 C 306.042969 183.96875 306.042969 183.578125 306.167969 183.1875 C 306.296875 182.792969 306.527344 182.476562 306.859375 182.238281 C 307.191406 181.996094 307.5625 181.875 307.972656 181.875 L 318.035156 181.875 C 318.445312 181.875 318.816406 181.753906 319.148438 181.511719 C 319.484375 181.269531 319.710938 180.953125 319.839844 180.5625 L 322.949219 170.996094 C 323.074219 170.605469 323.304688 170.289062 323.636719 170.046875 C 323.972656 169.808594 324.34375 169.6875 324.753906 169.6875 C 325.164062 169.6875 325.539062 169.808594 325.871094 170.050781 C 326.203125 170.289062 326.433594 170.605469 326.558594 171 Z M 326.558594 171 " fill-opacity="1" fill-rule="nonzero"/><path fill="#000000" d="M 135.335938 190.28125 L 125.429688 190.28125 L 125.429688 158.757812 L 115.703125 161.601562 L 115.703125 154.101562 L 134.425781 147.628906 L 135.335938 147.628906 Z M 135.335938 190.28125 " fill-opacity="1" fill-rule="nonzero"/><path fill="#000000" d="M 177.820312 172.851562 C 177.820312 178.613281 176.527344 183.054688 173.9375 186.179688 C 171.351562 189.304688 167.703125 190.867188 162.996094 190.867188 C 158.246094 190.867188 154.574219 189.292969 151.976562 186.152344 C 149.378906 183.007812 148.082031 178.574219 148.082031 172.851562 L 148.082031 165.058594 C 148.082031 159.296875 149.375 154.851562 151.960938 151.726562 C 154.550781 148.601562 158.210938 147.039062 162.9375 147.042969 C 167.664062 147.042969 171.328125 148.613281 173.925781 151.757812 C 176.523438 154.902344 177.820312 159.34375 177.820312 165.085938 Z M 167.945312 163.796875 C 167.945312 160.730469 167.546875 158.441406 166.746094 156.929688 C 165.945312 155.414062 164.675781 154.65625 162.9375 154.65625 C 161.238281 154.65625 160 155.359375 159.230469 156.765625 C 158.457031 158.171875 158.042969 160.300781 157.984375 163.152344 L 157.984375 174.050781 C 157.984375 177.234375 158.382812 179.5625 159.183594 181.039062 C 159.984375 182.511719 161.253906 183.25 162.996094 183.25 C 164.675781 183.25 165.914062 182.53125 166.714844 181.097656 C 167.515625 179.660156 167.925781 177.410156 167.945312 174.34375 Z M 167.945312 163.796875 " fill-opacity="1" fill-rule="nonzero"/><path fill="#000000" d="M 212.570312 172.851562 C 212.570312 178.613281 211.277344 183.054688 208.6875 186.179688 C 206.101562 189.304688 202.453125 190.867188 197.746094 190.867188 C 193 190.867188 189.328125 189.292969 186.726562 186.152344 C 184.128906 183.007812 182.832031 178.574219 182.832031 172.851562 L 182.832031 165.058594 C 182.832031 159.296875 184.125 154.851562 186.714844 151.726562 C 189.300781 148.601562 192.960938 147.039062 197.6875 147.042969 C 202.414062 147.042969 206.078125 148.613281 208.675781 151.757812 C 211.273438 154.902344 212.574219 159.34375 212.574219 165.085938 Z M 202.695312 163.796875 C 202.695312 160.730469 202.296875 158.441406 201.496094 156.929688 C 200.695312 155.414062 199.425781 154.65625 197.6875 154.65625 C 195.988281 154.65625 194.75 155.359375 193.980469 156.765625 C 193.207031 158.171875 192.792969 160.300781 192.734375 163.152344 L 192.734375 174.050781 C 192.734375 177.234375 193.136719 179.5625 193.9375 181.039062 C 194.738281 182.511719 196.007812 183.25 197.746094 183.25 C 199.425781 183.25 200.664062 182.53125 201.464844 181.097656 C 202.269531 179.660156 202.679688 177.410156 202.695312 174.34375 Z M 202.695312 163.796875 " fill-opacity="1" fill-rule="nonzero"/><path fill="#000000" d="M 217.730469 155.828125 C 217.730469 153.191406 218.589844 151.0625 220.308594 149.441406 C 222.027344 147.820312 224.332031 147.011719 227.222656 147.011719 C 230.152344 147.011719 232.46875 147.816406 234.167969 149.429688 C 235.867188 151.039062 236.71875 153.222656 236.71875 155.976562 L 236.71875 158.085938 C 236.71875 160.722656 235.867188 162.839844 234.167969 164.441406 C 232.46875 166.042969 230.171875 166.84375 227.28125 166.84375 C 224.410156 166.84375 222.101562 166.046875 220.351562 164.457031 C 218.605469 162.867188 217.730469 160.683594 217.730469 157.910156 Z M 224.089844 158.078125 C 224.046875 159.007812 224.332031 159.828125 224.9375 160.535156 C 225.503906 161.167969 226.285156 161.484375 227.28125 161.484375 C 229.332031 161.484375 230.359375 160.183594 230.359375 157.582031 L 230.359375 155.835938 C 230.394531 154.902344 230.121094 154.074219 229.539062 153.347656 C 228.992188 152.699219 228.21875 152.371094 227.222656 152.371094 C 226.3125 152.332031 225.550781 152.644531 224.9375 153.316406 C 224.371094 153.949219 224.085938 154.808594 224.089844 155.894531 Z M 229.15625 187.085938 L 224.558594 184.773438 L 245.390625 151.433594 L 249.992188 153.75 Z M 238.007812 179.820312 C 238.007812 177.164062 238.871094 175.035156 240.597656 173.433594 C 242.328125 171.832031 244.628906 171.03125 247.5 171.03125 C 250.410156 171.03125 252.726562 171.824219 254.445312 173.40625 C 256.164062 174.988281 257.023438 177.195312 257.023438 180.027344 L 257.023438 182.078125 C 257.023438 184.734375 256.171875 186.863281 254.472656 188.460938 C 252.773438 190.0625 250.46875 190.863281 247.558594 190.863281 C 244.6875 190.863281 242.375 190.070312 240.628906 188.476562 C 238.878906 186.886719 238.007812 184.703125 238.007812 181.929688 Z M 244.335938 182.070312 C 244.324219 182.996094 244.636719 183.796875 245.273438 184.472656 C 245.875 185.171875 246.636719 185.515625 247.558594 185.503906 C 249.453125 185.503906 250.476562 184.613281 250.632812 182.828125 L 250.664062 179.828125 C 250.664062 178.800781 250.378906 177.96875 249.8125 177.339844 C 249.511719 177.042969 249.160156 176.8125 248.769531 176.648438 C 248.375 176.484375 247.964844 176.398438 247.539062 176.394531 C 247.113281 176.386719 246.703125 176.460938 246.304688 176.617188 C 245.910156 176.769531 245.554688 176.992188 245.242188 177.28125 C 244.675781 177.875 244.375 178.675781 244.335938 179.683594 Z M 244.335938 182.070312 " fill-opacity="1" fill-rule="nonzero"/><path fill="#000000" d="M 118.847656 219.195312 L 123.535156 231.644531 L 128.207031 219.195312 L 131.855469 219.195312 L 131.855469 235.4375 L 129.042969 235.4375 L 129.042969 230.082031 L 129.324219 222.921875 L 124.527344 235.4375 L 122.507812 235.4375 L 117.71875 222.933594 L 118 230.082031 L 118 235.4375 L 115.1875 235.4375 L 115.1875 219.195312 Z M 118.847656 219.195312 " fill-opacity="1" fill-rule="nonzero"/><path fill="#000000" d="M 148.15625 227.742188 C 148.1875 229.199219 147.914062 230.59375 147.332031 231.929688 C 146.828125 233.09375 146.039062 234.015625 144.972656 234.695312 C 144.4375 235.011719 143.871094 235.253906 143.273438 235.417969 C 142.675781 235.582031 142.066406 235.660156 141.445312 235.660156 C 140.828125 235.660156 140.21875 235.582031 139.617188 235.417969 C 139.019531 235.253906 138.453125 235.011719 137.921875 234.695312 C 136.851562 234.019531 136.054688 233.101562 135.53125 231.949219 C 134.941406 230.640625 134.65625 229.265625 134.679688 227.832031 L 134.679688 226.917969 C 134.652344 225.457031 134.929688 224.058594 135.523438 222.722656 C 136.035156 221.554688 136.828125 220.628906 137.898438 219.941406 C 138.429688 219.625 138.996094 219.386719 139.59375 219.222656 C 140.191406 219.058594 140.796875 218.976562 141.417969 218.976562 C 142.035156 218.972656 142.644531 219.054688 143.242188 219.214844 C 143.839844 219.378906 144.40625 219.617188 144.9375 219.929688 C 146.003906 220.605469 146.796875 221.519531 147.308594 222.671875 C 147.898438 224 148.179688 225.386719 148.15625 226.839844 Z M 145.335938 226.894531 C 145.335938 225.09375 144.996094 223.714844 144.3125 222.753906 C 144.144531 222.53125 143.957031 222.332031 143.742188 222.152344 C 143.527344 221.972656 143.292969 221.820312 143.042969 221.695312 C 142.796875 221.574219 142.535156 221.476562 142.261719 221.414062 C 141.992188 221.347656 141.714844 221.316406 141.4375 221.316406 C 141.15625 221.316406 140.882812 221.347656 140.609375 221.410156 C 140.339844 221.476562 140.078125 221.570312 139.828125 221.695312 C 139.578125 221.820312 139.34375 221.96875 139.128906 222.148438 C 138.917969 222.328125 138.726562 222.527344 138.554688 222.75 C 137.867188 223.707031 137.515625 225.058594 137.503906 226.804688 L 137.503906 227.742188 C 137.503906 229.527344 137.851562 230.90625 138.546875 231.878906 C 138.871094 232.355469 139.289062 232.722656 139.804688 232.984375 C 140.320312 233.242188 140.863281 233.363281 141.441406 233.339844 C 142.691406 233.339844 143.652344 232.867188 144.324219 231.914062 C 144.996094 230.960938 145.335938 229.570312 145.335938 227.742188 Z M 145.335938 226.894531 " fill-opacity="1" fill-rule="nonzero"/><path fill="#000000" d="M 163.855469 235.4375 L 161.035156 235.4375 L 153.792969 223.917969 L 153.792969 235.4375 L 150.96875 235.4375 L 150.96875 219.195312 L 153.792969 219.195312 L 161.054688 230.765625 L 161.054688 219.195312 L 163.855469 219.195312 Z M 163.855469 235.4375 " fill-opacity="1" fill-rule="nonzero"/><path fill="#000000" d="M 176.6875 228.1875 L 170.015625 228.1875 L 170.015625 233.164062 L 177.8125 233.164062 L 177.8125 235.4375 L 167.191406 235.4375 L 167.191406 219.195312 L 177.734375 219.195312 L 177.734375 221.472656 L 170.015625 221.472656 L 170.015625 225.957031 L 176.6875 225.957031 Z M 176.6875 228.1875 " fill-opacity="1" fill-rule="nonzero"/><path fill="#000000" d="M 185.414062 226.894531 L 189.148438 219.199219 L 192.273438 219.199219 L 186.828125 229.460938 L 186.828125 235.4375 L 183.996094 235.4375 L 183.996094 229.460938 L 178.539062 219.199219 L 181.675781 219.199219 Z M 185.414062 226.894531 " fill-opacity="1" fill-rule="nonzero"/><path fill="#000000" d="M 199.726562 235.4375 L 199.726562 219.195312 L 205.296875 219.195312 C 207.132812 219.195312 208.53125 219.566406 209.492188 220.300781 C 210.449219 221.039062 210.929688 222.132812 210.929688 223.59375 C 210.9375 224.324219 210.738281 224.992188 210.328125 225.601562 C 209.878906 226.238281 209.289062 226.699219 208.5625 226.984375 C 209.40625 227.1875 210.082031 227.632812 210.601562 228.328125 C 211.105469 229.039062 211.34375 229.828125 211.320312 230.695312 C 211.320312 232.222656 210.832031 233.394531 209.851562 234.210938 C 208.875 235.027344 207.472656 235.4375 205.652344 235.4375 Z M 202.550781 226.035156 L 205.316406 226.035156 C 206.195312 226.035156 206.882812 225.835938 207.375 225.4375 C 207.90625 225 208.15625 224.4375 208.117188 223.75 C 208.117188 222.945312 207.886719 222.363281 207.429688 222.007812 C 206.972656 221.652344 206.261719 221.472656 205.292969 221.472656 L 202.550781 221.472656 Z M 202.550781 228.109375 L 202.550781 233.164062 L 205.6875 233.164062 C 206.570312 233.164062 207.261719 232.945312 207.761719 232.507812 C 208.296875 232.019531 208.546875 231.410156 208.507812 230.6875 C 208.507812 229.007812 207.644531 228.148438 205.917969 228.109375 Z M 202.550781 228.109375 " fill-opacity="1" fill-rule="nonzero"/><path fill="#000000" d="M 223.234375 231.65625 L 216.941406 231.65625 L 215.625 235.4375 L 212.691406 235.4375 L 218.828125 219.195312 L 221.363281 219.195312 L 227.507812 235.4375 L 224.5625 235.4375 Z M 217.734375 229.382812 L 222.445312 229.382812 L 220.089844 222.644531 Z M 217.734375 229.382812 " fill-opacity="1" fill-rule="nonzero"/><path fill="#000000" d="M 241.511719 230.152344 C 241.347656 231.882812 240.707031 233.234375 239.59375 234.207031 C 238.476562 235.175781 236.992188 235.660156 235.140625 235.660156 C 233.910156 235.6875 232.769531 235.378906 231.71875 234.742188 C 230.699219 234.097656 229.9375 233.226562 229.4375 232.125 C 228.875 230.875 228.59375 229.5625 228.601562 228.1875 L 228.601562 226.671875 C 228.574219 225.261719 228.84375 223.910156 229.417969 222.621094 C 229.921875 221.484375 230.703125 220.585938 231.753906 219.921875 C 232.835938 219.265625 234.007812 218.949219 235.273438 218.976562 C 237.066406 218.976562 238.511719 219.460938 239.601562 220.429688 C 240.695312 221.402344 241.332031 222.773438 241.511719 224.550781 L 238.699219 224.550781 C 238.566406 223.386719 238.226562 222.542969 237.679688 222.027344 C 237.132812 221.507812 236.332031 221.25 235.273438 221.25 C 234.046875 221.25 233.105469 221.699219 232.445312 222.597656 C 231.789062 223.492188 231.453125 224.808594 231.4375 226.542969 L 231.4375 227.984375 C 231.4375 229.742188 231.75 231.078125 232.378906 232.003906 C 233.007812 232.925781 233.929688 233.386719 235.140625 233.386719 C 236.25 233.386719 237.082031 233.136719 237.640625 232.640625 C 238.199219 232.140625 238.550781 231.3125 238.699219 230.152344 Z M 241.511719 230.152344 " fill-opacity="1" fill-rule="nonzero"/><path fill="#000000" d="M 248.699219 228.421875 L 246.855469 230.375 L 246.855469 235.4375 L 244.035156 235.4375 L 244.035156 219.195312 L 246.855469 219.195312 L 246.855469 226.816406 L 248.417969 224.886719 L 253.171875 219.195312 L 256.585938 219.195312 L 250.546875 226.390625 L 256.929688 235.4375 L 253.585938 235.4375 Z M 248.699219 228.421875 " fill-opacity="1" fill-rule="nonzero"/><path fill="#000000" d="M 256.015625 205.972656 L 108.753906 205.972656 C 108.285156 205.972656 107.832031 205.882812 107.394531 205.703125 C 106.960938 205.519531 106.574219 205.265625 106.242188 204.929688 C 105.90625 204.597656 105.652344 204.214844 105.46875 203.777344 C 105.289062 203.34375 105.199219 202.890625 105.199219 202.417969 C 105.199219 201.945312 105.289062 201.492188 105.46875 201.058594 C 105.652344 200.621094 105.90625 200.238281 106.242188 199.902344 C 106.574219 199.570312 106.960938 199.3125 107.394531 199.132812 C 107.832031 198.953125 108.285156 198.863281 108.753906 198.863281 L 256.015625 198.863281 C 256.488281 198.863281 256.941406 198.953125 257.378906 199.132812 C 257.8125 199.3125 258.199219 199.570312 258.53125 199.902344 C 258.863281 200.238281 259.121094 200.621094 259.300781 201.058594 C 259.480469 201.492188 259.570312 201.945312 259.570312 202.417969 C 259.570312 202.890625 259.480469 203.34375 259.300781 203.777344 C 259.121094 204.214844 258.863281 204.597656 258.53125 204.929688 C 258.195312 205.265625 257.8125 205.519531 257.378906 205.703125 C 256.941406 205.882812 256.488281 205.972656 256.015625 205.972656 Z M 256.015625 205.972656 " fill-opacity="1" fill-rule="nonzero"/><path fill="#000000" d="M 186.445312 248.527344 L 188.726562 255.550781 C 188.835938 255.882812 189.027344 256.148438 189.308594 256.351562 C 189.589844 256.554688 189.902344 256.65625 190.25 256.65625 L 197.636719 256.65625 C 197.980469 256.65625 198.296875 256.757812 198.574219 256.960938 C 198.855469 257.164062 199.050781 257.433594 199.15625 257.761719 C 199.261719 258.089844 199.261719 258.417969 199.15625 258.75 C 199.050781 259.078125 198.855469 259.34375 198.574219 259.546875 L 192.597656 263.890625 C 192.320312 264.09375 192.125 264.359375 192.019531 264.6875 C 191.910156 265.015625 191.910156 265.347656 192.019531 265.675781 L 194.300781 272.699219 C 194.40625 273.03125 194.40625 273.359375 194.300781 273.6875 C 194.195312 274.015625 194 274.285156 193.71875 274.488281 C 193.441406 274.691406 193.128906 274.792969 192.78125 274.792969 C 192.433594 274.792969 192.121094 274.691406 191.839844 274.488281 L 185.863281 270.144531 C 185.585938 269.941406 185.269531 269.839844 184.925781 269.839844 C 184.578125 269.839844 184.265625 269.941406 183.984375 270.144531 L 178.007812 274.488281 C 177.726562 274.691406 177.414062 274.792969 177.070312 274.792969 C 176.722656 274.792969 176.410156 274.691406 176.128906 274.488281 C 175.847656 274.285156 175.65625 274.015625 175.546875 273.6875 C 175.441406 273.359375 175.441406 273.03125 175.546875 272.699219 L 177.832031 265.675781 C 177.9375 265.347656 177.9375 265.015625 177.832031 264.6875 C 177.722656 264.359375 177.53125 264.09375 177.25 263.890625 L 171.273438 259.546875 C 170.992188 259.34375 170.800781 259.078125 170.695312 258.75 C 170.585938 258.417969 170.585938 258.089844 170.695312 257.761719 C 170.800781 257.433594 170.996094 257.164062 171.273438 256.960938 C 171.554688 256.757812 171.867188 256.65625 172.214844 256.65625 L 179.601562 256.65625 C 179.945312 256.65625 180.261719 256.554688 180.539062 256.351562 C 180.820312 256.148438 181.015625 255.882812 181.121094 255.550781 L 183.402344 248.527344 C 183.511719 248.199219 183.703125 247.929688 183.984375 247.726562 C 184.265625 247.523438 184.578125 247.421875 184.925781 247.421875 C 185.269531 247.421875 185.585938 247.523438 185.863281 247.726562 C 186.144531 247.929688 186.339844 248.199219 186.445312 248.527344 Z M 186.445312 248.527344 " fill-opacity="1" fill-rule="nonzero"/><path fill="#000000" d="M 186.445312 107.527344 L 188.726562 114.550781 C 188.835938 114.878906 189.027344 115.144531 189.308594 115.351562 C 189.589844 115.554688 189.902344 115.65625 190.25 115.65625 L 197.636719 115.65625 C 197.980469 115.65625 198.296875 115.757812 198.574219 115.960938 C 198.855469 116.164062 199.050781 116.429688 199.15625 116.757812 C 199.261719 117.089844 199.261719 117.417969 199.15625 117.746094 C 199.050781 118.074219 198.855469 118.34375 198.574219 118.546875 L 192.597656 122.886719 C 192.320312 123.089844 192.125 123.355469 192.019531 123.6875 C 191.910156 124.015625 191.910156 124.34375 192.019531 124.675781 L 194.300781 131.699219 C 194.40625 132.027344 194.40625 132.355469 194.300781 132.6875 C 194.195312 133.015625 194 133.28125 193.71875 133.484375 C 193.441406 133.6875 193.128906 133.789062 192.78125 133.789062 C 192.433594 133.789062 192.121094 133.6875 191.839844 133.484375 L 185.863281 129.144531 C 185.585938 128.941406 185.269531 128.839844 184.925781 128.839844 C 184.578125 128.839844 184.265625 128.941406 183.984375 129.144531 L 178.007812 133.484375 C 177.726562 133.6875 177.414062 133.789062 177.070312 133.789062 C 176.722656 133.789062 176.410156 133.6875 176.128906 133.484375 C 175.847656 133.28125 175.65625 133.015625 175.546875 132.6875 C 175.441406 132.355469 175.441406 132.027344 175.546875 131.699219 L 177.832031 124.675781 C 177.9375 124.34375 177.9375 124.015625 177.832031 123.6875 C 177.722656 123.355469 177.53125 123.089844 177.25 122.886719 L 171.273438 118.546875 C 170.992188 118.34375 170.800781 118.074219 170.695312 117.746094 C 170.585938 117.417969 170.585938 117.089844 170.695312 116.757812 C 170.800781 116.429688 170.996094 116.164062 171.273438 115.960938 C 171.554688 115.757812 171.867188 115.65625 172.214844 115.65625 L 179.601562 115.65625 C 179.945312 115.65625 180.261719 115.554688 180.539062 115.351562 C 180.820312 115.144531 181.015625 114.878906 181.121094 114.550781 L 183.402344 107.527344 C 183.511719 107.195312 183.703125 106.929688 183.984375 106.726562 C 184.265625 106.523438 184.578125 106.421875 184.925781 106.421875 C 185.269531 106.421875 185.585938 106.523438 185.863281 106.726562 C 186.144531 106.929688 186.339844 107.195312 186.445312 107.527344 Z M 186.445312 107.527344 " fill-opacity="1" fill-rule="nonzero"/><path fill="#000000" d="M 221.199219 117.402344 L 222.625 121.785156 C 222.691406 121.992188 222.8125 122.15625 222.988281 122.285156 C 223.164062 122.410156 223.359375 122.472656 223.574219 122.476562 L 228.183594 122.476562 C 228.398438 122.476562 228.597656 122.539062 228.769531 122.664062 C 228.945312 122.792969 229.066406 122.957031 229.132812 123.164062 C 229.199219 123.371094 229.199219 123.574219 229.132812 123.78125 C 229.066406 123.984375 228.945312 124.152344 228.769531 124.277344 L 225.042969 126.988281 C 224.867188 127.117188 224.746094 127.28125 224.679688 127.488281 C 224.613281 127.691406 224.613281 127.898438 224.679688 128.105469 L 226.105469 132.488281 C 226.171875 132.695312 226.171875 132.898438 226.105469 133.105469 C 226.035156 133.308594 225.917969 133.476562 225.742188 133.605469 C 225.566406 133.730469 225.371094 133.792969 225.15625 133.792969 C 224.9375 133.792969 224.742188 133.730469 224.566406 133.601562 L 220.839844 130.894531 C 220.664062 130.765625 220.46875 130.703125 220.25 130.703125 C 220.035156 130.703125 219.839844 130.765625 219.664062 130.894531 L 215.933594 133.601562 C 215.761719 133.730469 215.566406 133.792969 215.347656 133.792969 C 215.132812 133.792969 214.9375 133.730469 214.761719 133.605469 C 214.585938 133.476562 214.464844 133.308594 214.398438 133.105469 C 214.332031 132.898438 214.332031 132.695312 214.398438 132.488281 L 215.824219 128.105469 C 215.890625 127.898438 215.890625 127.691406 215.824219 127.488281 C 215.757812 127.28125 215.636719 127.117188 215.460938 126.988281 L 211.734375 124.277344 C 211.558594 124.152344 211.4375 123.984375 211.371094 123.78125 C 211.304688 123.574219 211.304688 123.371094 211.371094 123.164062 C 211.4375 122.957031 211.558594 122.792969 211.734375 122.664062 C 211.90625 122.539062 212.101562 122.472656 212.320312 122.472656 L 216.929688 122.472656 C 217.144531 122.472656 217.339844 122.410156 217.515625 122.285156 C 217.691406 122.15625 217.8125 121.992188 217.878906 121.785156 L 219.304688 117.402344 C 219.371094 117.195312 219.492188 117.03125 219.664062 116.902344 C 219.839844 116.773438 220.035156 116.710938 220.25 116.710938 C 220.46875 116.710938 220.664062 116.773438 220.839844 116.902344 C 221.011719 117.03125 221.132812 117.195312 221.199219 117.402344 Z M 221.199219 117.402344 " fill-opacity="1" fill-rule="nonzero"/><path fill="#000000" d="M 151.164062 117.402344 L 152.589844 121.785156 C 152.65625 121.992188 152.777344 122.15625 152.953125 122.285156 C 153.125 122.410156 153.320312 122.472656 153.539062 122.476562 L 158.148438 122.476562 C 158.363281 122.476562 158.558594 122.539062 158.734375 122.664062 C 158.910156 122.792969 159.03125 122.957031 159.097656 123.164062 C 159.164062 123.371094 159.164062 123.574219 159.097656 123.78125 C 159.03125 123.984375 158.910156 124.152344 158.734375 124.277344 L 155.003906 126.988281 C 154.832031 127.117188 154.710938 127.28125 154.644531 127.488281 C 154.578125 127.691406 154.578125 127.898438 154.644531 128.105469 L 156.066406 132.488281 C 156.132812 132.695312 156.136719 132.898438 156.066406 133.105469 C 156 133.308594 155.878906 133.476562 155.707031 133.605469 C 155.53125 133.730469 155.335938 133.792969 155.117188 133.792969 C 154.902344 133.792969 154.707031 133.730469 154.53125 133.601562 L 150.800781 130.894531 C 150.628906 130.765625 150.433594 130.703125 150.214844 130.703125 C 150 130.703125 149.804688 130.765625 149.628906 130.894531 L 145.898438 133.601562 C 145.726562 133.730469 145.527344 133.792969 145.3125 133.792969 C 145.097656 133.792969 144.902344 133.730469 144.726562 133.601562 C 144.550781 133.476562 144.429688 133.308594 144.363281 133.105469 C 144.296875 132.898438 144.296875 132.691406 144.363281 132.488281 L 145.789062 128.105469 C 145.855469 127.898438 145.855469 127.691406 145.789062 127.488281 C 145.722656 127.28125 145.601562 127.117188 145.425781 126.988281 L 141.695312 124.277344 C 141.523438 124.152344 141.402344 123.984375 141.332031 123.78125 C 141.265625 123.574219 141.265625 123.371094 141.332031 123.164062 C 141.402344 122.957031 141.519531 122.792969 141.695312 122.664062 C 141.871094 122.539062 142.066406 122.476562 142.28125 122.476562 L 146.894531 122.476562 C 147.109375 122.472656 147.304688 122.410156 147.480469 122.285156 C 147.652344 122.15625 147.773438 121.992188 147.839844 121.785156 L 149.265625 117.402344 C 149.332031 117.195312 149.453125 117.027344 149.628906 116.902344 C 149.804688 116.773438 150 116.710938 150.214844 116.710938 C 150.433594 116.710938 150.628906 116.773438 150.800781 116.902344 C 150.976562 117.027344 151.097656 117.195312 151.164062 117.402344 Z M 151.164062 117.402344 " fill-opacity="1" fill-rule="nonzero"/><path fill="#000000" d="M 221.199219 257.066406 L 222.625 261.449219 C 222.691406 261.65625 222.8125 261.820312 222.988281 261.949219 C 223.164062 262.074219 223.359375 262.136719 223.574219 262.136719 L 228.183594 262.136719 C 228.398438 262.136719 228.597656 262.203125 228.769531 262.328125 C 228.945312 262.457031 229.066406 262.621094 229.132812 262.828125 C 229.199219 263.035156 229.199219 263.238281 229.132812 263.445312 C 229.066406 263.648438 228.945312 263.816406 228.769531 263.941406 L 225.039062 266.652344 C 224.867188 266.78125 224.746094 266.945312 224.679688 267.152344 C 224.609375 267.355469 224.609375 267.5625 224.679688 267.769531 L 226.101562 272.152344 C 226.167969 272.355469 226.167969 272.5625 226.101562 272.769531 C 226.035156 272.972656 225.914062 273.140625 225.742188 273.265625 C 225.566406 273.394531 225.371094 273.457031 225.152344 273.457031 C 224.9375 273.457031 224.742188 273.394531 224.566406 273.265625 L 220.835938 270.558594 C 220.664062 270.429688 220.46875 270.367188 220.25 270.367188 C 220.035156 270.367188 219.839844 270.429688 219.664062 270.558594 L 215.933594 273.265625 C 215.757812 273.394531 215.5625 273.457031 215.347656 273.457031 C 215.132812 273.457031 214.9375 273.394531 214.761719 273.265625 C 214.585938 273.140625 214.464844 272.972656 214.398438 272.769531 C 214.332031 272.5625 214.332031 272.355469 214.398438 272.152344 L 215.824219 267.769531 C 215.890625 267.5625 215.890625 267.355469 215.824219 267.152344 C 215.757812 266.945312 215.636719 266.78125 215.460938 266.652344 L 211.730469 263.941406 C 211.554688 263.816406 211.433594 263.648438 211.367188 263.445312 C 211.300781 263.238281 211.300781 263.035156 211.367188 262.828125 C 211.433594 262.621094 211.554688 262.457031 211.730469 262.328125 C 211.90625 262.203125 212.101562 262.136719 212.316406 262.136719 L 216.929688 262.136719 C 217.144531 262.136719 217.339844 262.074219 217.515625 261.949219 C 217.6875 261.820312 217.808594 261.65625 217.875 261.449219 L 219.300781 257.066406 C 219.367188 256.859375 219.488281 256.691406 219.664062 256.5625 C 219.839844 256.4375 220.035156 256.371094 220.25 256.371094 C 220.46875 256.371094 220.664062 256.4375 220.839844 256.5625 C 221.015625 256.691406 221.132812 256.859375 221.199219 257.066406 Z M 221.199219 257.066406 " fill-opacity="1" fill-rule="nonzero"/><path fill="#000000" d="M 151.164062 257.066406 L 152.589844 261.449219 C 152.65625 261.65625 152.777344 261.820312 152.953125 261.949219 C 153.125 262.074219 153.320312 262.136719 153.539062 262.136719 L 158.148438 262.136719 C 158.363281 262.136719 158.558594 262.203125 158.734375 262.328125 C 158.910156 262.457031 159.03125 262.621094 159.097656 262.828125 C 159.164062 263.035156 159.164062 263.238281 159.097656 263.445312 C 159.03125 263.648438 158.910156 263.816406 158.734375 263.941406 L 155.003906 266.652344 C 154.828125 266.78125 154.707031 266.945312 154.640625 267.152344 C 154.574219 267.355469 154.574219 267.5625 154.640625 267.769531 L 156.066406 272.152344 C 156.132812 272.355469 156.132812 272.5625 156.066406 272.769531 C 156 272.972656 155.878906 273.140625 155.703125 273.265625 C 155.53125 273.394531 155.335938 273.457031 155.117188 273.457031 C 154.902344 273.457031 154.707031 273.394531 154.53125 273.265625 L 150.800781 270.558594 C 150.625 270.429688 150.429688 270.367188 150.214844 270.367188 C 150 270.367188 149.804688 270.429688 149.628906 270.558594 L 145.898438 273.265625 C 145.722656 273.394531 145.527344 273.457031 145.3125 273.457031 C 145.097656 273.457031 144.902344 273.394531 144.726562 273.265625 C 144.550781 273.140625 144.429688 272.972656 144.363281 272.769531 C 144.296875 272.5625 144.296875 272.355469 144.363281 272.152344 L 145.789062 267.769531 C 145.855469 267.5625 145.855469 267.355469 145.789062 267.152344 C 145.722656 266.945312 145.601562 266.78125 145.425781 266.652344 L 141.695312 263.941406 C 141.519531 263.816406 141.398438 263.648438 141.332031 263.445312 C 141.265625 263.238281 141.265625 263.035156 141.332031 262.828125 C 141.398438 262.621094 141.519531 262.457031 141.695312 262.328125 C 141.871094 262.203125 142.066406 262.136719 142.28125 262.136719 L 146.890625 262.136719 C 147.109375 262.136719 147.304688 262.074219 147.476562 261.949219 C 147.652344 261.820312 147.773438 261.65625 147.839844 261.449219 L 149.265625 257.066406 C 149.332031 256.859375 149.453125 256.691406 149.628906 256.5625 C 149.800781 256.4375 150 256.371094 150.214844 256.371094 C 150.433594 256.371094 150.628906 256.4375 150.800781 256.5625 C 150.976562 256.691406 151.097656 256.859375 151.164062 257.066406 Z M 151.164062 257.066406 " fill-opacity="1" fill-rule="nonzero"/></svg>