<svg xmlns="http://www.w3.org/2000/svg" xmlns:xlink="http://www.w3.org/1999/xlink" width="500" zoomAndPan="magnify" viewBox="0 0 375 374.999991" height="500" preserveAspectRatio="xMidYMid meet" version="1.0"><defs><clipPath id="3501b5cb2b"><path d="M 2.613281 18.75 L 372.363281 18.75 L 372.363281 356.25 L 2.613281 356.25 Z M 2.613281 18.75 " clip-rule="nonzero"/></clipPath></defs><rect x="-37.5" width="450" fill="#ffffff" y="-37.499999" height="449.999989" fill-opacity="1"/><rect x="-37.5" width="450" fill="#ffffff" y="-37.499999" height="449.999989" fill-opacity="1"/><g clip-path="url(#3501b5cb2b)"><path fill="#000000" d="M 352.074219 18.75 L 22.90625 18.75 C 11.796875 18.75 2.765625 27.789062 2.765625 38.894531 L 2.765625 248.078125 C 2.765625 259.1875 11.796875 268.222656 22.90625 268.222656 L 228.050781 268.222656 C 229.9375 275.121094 233.050781 281.496094 237.164062 287.125 C 226.136719 302.703125 217.441406 320.433594 211.34375 339.910156 C 210.980469 341.082031 211.378906 342.355469 212.355469 343.109375 C 213.332031 343.855469 214.660156 343.921875 215.707031 343.265625 C 220.222656 340.425781 233.425781 333.414062 240.03125 335.042969 C 245.75 336.457031 252.351562 347.628906 255.171875 354.339844 C 255.636719 355.441406 256.707031 356.136719 257.875 356.136719 C 258.035156 356.136719 258.199219 356.125 258.367188 356.097656 C 259.710938 355.867188 260.71875 354.746094 260.800781 353.386719 C 261.742188 337.921875 266.222656 323.410156 274.046875 310.195312 C 277.347656 310.78125 280.730469 311.140625 284.195312 311.140625 C 287.660156 311.140625 291.039062 310.78125 294.34375 310.195312 C 302.164062 323.40625 306.640625 337.914062 307.585938 353.386719 C 307.667969 354.746094 308.679688 355.867188 310.019531 356.097656 C 310.1875 356.125 310.351562 356.136719 310.515625 356.136719 C 311.675781 356.136719 312.753906 355.445312 313.214844 354.339844 C 316.039062 347.628906 322.640625 336.457031 328.359375 335.042969 C 334.992188 333.410156 348.160156 340.425781 352.683594 343.269531 C 353.722656 343.921875 355.0625 343.863281 356.035156 343.109375 C 357.007812 342.355469 357.410156 341.082031 357.042969 339.910156 C 350.941406 320.425781 342.246094 302.691406 331.226562 287.125 C 335.335938 281.496094 338.449219 275.117188 340.339844 268.222656 L 352.078125 268.222656 C 363.183594 268.222656 372.21875 259.183594 372.21875 248.078125 L 372.21875 38.894531 C 372.214844 27.789062 363.179688 18.75 352.074219 18.75 Z M 284.191406 194.621094 C 255.847656 194.621094 232.195312 214.976562 227.015625 241.832031 L 29.210938 241.832031 L 29.210938 45.140625 L 345.765625 45.140625 L 345.765625 241.832031 L 341.367188 241.832031 C 336.191406 214.976562 312.535156 194.621094 284.191406 194.621094 Z M 256.015625 343.160156 C 252.5625 337.425781 247.421875 330.832031 241.4375 329.351562 C 234.894531 327.730469 225.605469 331.40625 219.316406 334.546875 C 224.832031 318.980469 232.121094 304.671875 241.011719 291.851562 C 248.191406 299.796875 257.492188 305.761719 268.042969 308.816406 C 261.957031 319.535156 257.914062 331.03125 256.015625 343.160156 Z M 231.796875 252.878906 C 231.796875 223.988281 255.300781 200.484375 284.191406 200.484375 C 313.082031 200.484375 336.585938 223.988281 336.585938 252.878906 C 336.585938 281.769531 313.082031 305.277344 284.191406 305.277344 C 255.300781 305.277344 231.796875 281.769531 231.796875 252.878906 Z M 349.066406 334.550781 C 342.78125 331.40625 333.503906 327.730469 326.945312 329.355469 C 320.957031 330.835938 315.820312 337.429688 312.367188 343.164062 C 310.464844 331.03125 306.425781 319.53125 300.339844 308.816406 C 310.894531 305.765625 320.191406 299.800781 327.371094 291.855469 C 336.257812 304.667969 343.550781 318.976562 349.066406 334.550781 Z M 366.351562 248.078125 C 366.351562 255.953125 359.941406 262.355469 352.074219 262.355469 L 341.613281 262.355469 C 342.121094 259.265625 342.453125 256.113281 342.453125 252.878906 C 342.453125 251.128906 342.339844 249.40625 342.1875 247.695312 L 348.699219 247.695312 C 350.320312 247.695312 351.628906 246.382812 351.628906 244.761719 L 351.628906 42.207031 C 351.628906 40.589844 350.320312 39.277344 348.699219 39.277344 L 26.28125 39.277344 C 24.660156 39.277344 23.347656 40.589844 23.347656 42.207031 L 23.347656 244.761719 C 23.347656 246.382812 24.660156 247.695312 26.28125 247.695312 L 226.195312 247.695312 C 226.042969 249.410156 225.933594 251.128906 225.933594 252.878906 C 225.933594 256.113281 226.265625 259.261719 226.773438 262.355469 L 22.90625 262.355469 C 15.035156 262.355469 8.628906 255.953125 8.628906 248.078125 L 8.628906 38.894531 C 8.628906 31.019531 15.035156 24.613281 22.90625 24.613281 L 352.074219 24.613281 C 359.941406 24.613281 366.351562 31.019531 366.351562 38.894531 Z M 366.351562 248.078125 " fill-opacity="1" fill-rule="nonzero"/></g><path fill="#000000" d="M 95.679688 90.625 L 277.847656 90.625 C 279.472656 90.625 280.78125 89.3125 280.78125 87.691406 L 280.78125 61.152344 C 280.78125 59.535156 279.472656 58.222656 277.847656 58.222656 L 95.679688 58.222656 C 94.058594 58.222656 92.746094 59.535156 92.746094 61.152344 L 92.746094 87.691406 C 92.746094 89.3125 94.058594 90.625 95.679688 90.625 Z M 98.609375 64.085938 L 274.917969 64.085938 L 274.917969 84.761719 L 98.609375 84.761719 Z M 98.609375 64.085938 " fill-opacity="1" fill-rule="nonzero"/><path fill="#000000" d="M 313.511719 121.804688 L 68.03125 121.804688 C 66.410156 121.804688 65.097656 123.121094 65.097656 124.738281 C 65.097656 126.355469 66.410156 127.671875 68.03125 127.671875 L 313.511719 127.671875 C 315.132812 127.671875 316.441406 126.355469 316.441406 124.738281 C 316.441406 123.121094 315.128906 121.804688 313.511719 121.804688 Z M 313.511719 121.804688 " fill-opacity="1" fill-rule="nonzero"/><path fill="#000000" d="M 153.453125 156.972656 C 155.074219 156.972656 156.386719 155.660156 156.386719 154.039062 C 156.386719 152.421875 155.074219 151.109375 153.453125 151.109375 L 89.59375 151.109375 C 87.972656 151.109375 86.660156 152.421875 86.660156 154.039062 C 86.660156 155.660156 87.972656 156.972656 89.59375 156.972656 Z M 153.453125 156.972656 " fill-opacity="1" fill-rule="nonzero"/><path fill="#000000" d="M 299.132812 151.109375 L 198.074219 151.109375 C 196.453125 151.109375 195.140625 152.421875 195.140625 154.039062 C 195.140625 155.660156 196.453125 156.972656 198.074219 156.972656 L 299.132812 156.972656 C 300.753906 156.972656 302.066406 155.660156 302.066406 154.039062 C 302.066406 152.421875 300.753906 151.109375 299.132812 151.109375 Z M 299.132812 151.109375 " fill-opacity="1" fill-rule="nonzero"/><path fill="#000000" d="M 174.894531 203.40625 C 167.425781 200.523438 157.148438 200.945312 146.140625 204.636719 C 148.472656 196.785156 145.332031 193.667969 143.222656 192.503906 C 141.382812 191.484375 137.609375 189.390625 113.164062 203.671875 C 117.335938 195.191406 116.820312 191.621094 116.023438 189.648438 C 115.339844 187.972656 114.046875 186.785156 112.289062 186.222656 C 99.160156 182.03125 70.664062 212.363281 65.085938 218.484375 C 63.992188 219.679688 64.078125 221.539062 65.273438 222.628906 C 65.839844 223.140625 66.546875 223.394531 67.25 223.394531 C 68.046875 223.394531 68.839844 223.070312 69.417969 222.433594 C 82.242188 208.363281 103.464844 189.5625 110.566406 191.816406 C 110.578125 191.832031 111.703125 194.035156 106.878906 203.074219 C 105.777344 205.136719 106.171875 207.613281 107.863281 209.230469 C 109.558594 210.851562 112.046875 211.144531 114.074219 209.941406 C 131.660156 199.5 138.996094 197.316406 140.382812 197.632812 C 141.523438 198.265625 141.152344 200.957031 140.425781 203.269531 C 139.804688 205.261719 140.339844 207.414062 141.824219 208.875 C 143.339844 210.367188 145.542969 210.875 147.570312 210.21875 C 157.574219 206.9375 166.53125 206.460938 172.785156 208.875 C 174.304688 209.453125 175.996094 208.707031 176.574219 207.195312 C 177.160156 205.6875 176.40625 203.988281 174.894531 203.40625 Z M 174.894531 203.40625 " fill-opacity="1" fill-rule="nonzero"/><path fill="#000000" d="M 284.191406 207.941406 C 259.410156 207.941406 239.253906 228.101562 239.253906 252.878906 C 239.253906 277.660156 259.410156 297.824219 284.191406 297.824219 C 308.972656 297.824219 329.128906 277.664062 329.128906 252.878906 C 329.132812 228.101562 308.972656 207.941406 284.191406 207.941406 Z M 284.191406 291.957031 C 262.644531 291.957031 245.117188 274.425781 245.117188 252.878906 C 245.117188 231.332031 262.648438 213.804688 284.191406 213.804688 C 305.734375 213.804688 323.265625 231.332031 323.265625 252.878906 C 323.265625 274.425781 305.738281 291.957031 284.191406 291.957031 Z M 284.191406 291.957031 " fill-opacity="1" fill-rule="nonzero"/><path fill="#000000" d="M 313.191406 240.589844 C 312.726562 239.523438 311.671875 238.835938 310.511719 238.835938 L 293.636719 238.835938 L 286.804688 225.433594 C 285.800781 223.46875 282.585938 223.46875 281.582031 225.433594 L 274.75 238.835938 L 257.875 238.835938 C 256.714844 238.835938 255.660156 239.519531 255.191406 240.589844 C 254.722656 241.652344 254.929688 242.894531 255.714844 243.75 L 267.621094 256.726562 L 261.027344 272.980469 C 260.566406 274.121094 260.863281 275.425781 261.773438 276.253906 C 262.683594 277.078125 264.011719 277.25 265.101562 276.683594 L 284.199219 266.730469 L 303.292969 276.683594 C 303.722656 276.90625 304.1875 277.015625 304.648438 277.015625 C 305.363281 277.015625 306.066406 276.753906 306.621094 276.253906 C 307.53125 275.425781 307.828125 274.117188 307.367188 272.980469 L 300.769531 256.726562 L 312.679688 243.75 C 313.457031 242.894531 313.664062 241.652344 313.191406 240.589844 Z M 295.1875 254.128906 C 294.421875 254.964844 294.203125 256.164062 294.632812 257.214844 L 298.929688 267.800781 L 285.550781 260.828125 C 284.703125 260.382812 283.6875 260.382812 282.839844 260.828125 L 269.457031 267.800781 L 273.753906 257.214844 C 274.179688 256.167969 273.960938 254.964844 273.199219 254.132812 L 264.550781 244.703125 L 276.550781 244.703125 C 277.652344 244.703125 278.660156 244.082031 279.164062 243.101562 L 284.199219 233.226562 L 289.238281 243.101562 C 289.738281 244.082031 290.746094 244.703125 291.851562 244.703125 L 303.851562 244.703125 Z M 295.1875 254.128906 " fill-opacity="1" fill-rule="nonzero"/></svg>