<svg xmlns="http://www.w3.org/2000/svg" xmlns:xlink="http://www.w3.org/1999/xlink" width="500" zoomAndPan="magnify" viewBox="0 0 375 374.999991" height="500" preserveAspectRatio="xMidYMid meet" version="1.0"><defs><clipPath id="e7f2ac3a3f"><path d="M 24.546875 0 L 350.796875 0 L 350.796875 375 L 24.546875 375 Z M 24.546875 0 " clip-rule="nonzero"/></clipPath></defs><rect x="-37.5" width="450" fill="#ffffff" y="-37.499999" height="449.999989" fill-opacity="1"/><rect x="-37.5" width="450" fill="#ffffff" y="-37.499999" height="449.999989" fill-opacity="1"/><g clip-path="url(#e7f2ac3a3f)"><path fill="#000000" d="M 350.832031 97.042969 C 350.832031 94.886719 349.679688 92.890625 347.8125 91.8125 L 190.71875 1.210938 C 188.847656 0.132812 186.546875 0.132812 184.675781 1.210938 L 82.910156 59.902344 C 82.902344 59.902344 82.902344 59.914062 82.894531 59.914062 L 27.601562 91.804688 C 27.59375 91.8125 27.582031 91.8125 27.574219 91.8125 C 27.339844 91.949219 27.113281 92.105469 26.902344 92.265625 C 25.425781 93.398438 24.546875 95.167969 24.546875 97.050781 C 24.546875 97.097656 24.554688 97.140625 24.554688 97.1875 L 24.546875 278.257812 C 24.546875 280.414062 25.699219 282.40625 27.566406 283.484375 L 184.667969 374.085938 C 185.601562 374.632812 186.644531 374.894531 187.6875 374.894531 C 188.730469 374.894531 189.773438 374.621094 190.707031 374.085938 L 347.8125 283.484375 C 349.679688 282.40625 350.832031 280.414062 350.832031 278.257812 Z M 286.363281 137.703125 L 286.363281 163.019531 L 250.199219 183.875 L 250.199219 158.5625 Z M 86.058594 72.035156 L 231.0625 155.664062 L 187.699219 180.667969 L 42.6875 97.042969 Z M 135.316406 43.621094 L 280.320312 127.25 L 243.144531 148.6875 L 98.140625 65.058594 Z M 187.6875 13.414062 L 332.691406 97.042969 L 292.402344 120.28125 L 147.398438 36.644531 Z M 36.644531 107.515625 L 181.648438 191.132812 L 181.648438 358.402344 L 36.636719 274.777344 Z M 193.738281 358.394531 L 193.738281 191.125 L 238.117188 165.527344 L 238.117188 194.332031 C 238.117188 196.488281 239.269531 198.480469 241.136719 199.558594 C 242.074219 200.101562 243.117188 200.367188 244.160156 200.367188 C 245.203125 200.367188 246.246094 200.09375 247.179688 199.558594 L 295.433594 171.734375 C 297.300781 170.65625 298.453125 168.664062 298.453125 166.507812 L 298.453125 130.738281 L 338.742188 107.496094 L 338.75 274.769531 Z M 266.109375 232.648438 C 264.238281 231.570312 261.9375 231.570312 260.066406 232.648438 L 214 259.210938 C 212.132812 260.289062 210.980469 262.285156 210.980469 264.441406 L 210.980469 317.578125 C 210.980469 319.734375 212.132812 321.726562 214 322.804688 C 214.933594 323.351562 215.976562 323.613281 217.019531 323.613281 C 218.0625 323.613281 219.105469 323.339844 220.042969 322.804688 L 266.109375 296.234375 C 267.976562 295.152344 269.128906 293.160156 269.128906 291.003906 L 269.128906 237.867188 C 269.128906 235.71875 267.976562 233.726562 266.109375 232.648438 Z M 223.0625 307.121094 L 223.0625 267.929688 L 257.039062 248.332031 L 257.039062 287.527344 Z M 90.519531 281.292969 C 89.40625 283.230469 87.375 284.308594 85.277344 284.308594 C 84.253906 284.308594 83.210938 284.046875 82.257812 283.503906 L 50.914062 265.417969 C 48.019531 263.75 47.03125 260.054688 48.699219 257.171875 C 50.367188 254.285156 54.058594 253.296875 56.953125 254.960938 L 88.300781 273.046875 C 91.191406 274.714844 92.191406 278.402344 90.519531 281.292969 Z M 90.519531 281.292969 " fill-opacity="1" fill-rule="nonzero"/></g></svg>